%TF.GenerationSoftware,KiCad,Pcbnew,9.0.0*%
%TF.CreationDate,2025-03-07T11:14:37+01:00*%
%TF.ProjectId,PCB_rigide,5043425f-7269-4676-9964-652e6b696361,rev?*%
%TF.SameCoordinates,Original*%
%TF.FileFunction,Legend,Top*%
%TF.FilePolarity,Positive*%
%FSLAX46Y46*%
G04 Gerber Fmt 4.6, Leading zero omitted, Abs format (unit mm)*
G04 Created by KiCad (PCBNEW 9.0.0) date 2025-03-07 11:14:37*
%MOMM*%
%LPD*%
G01*
G04 APERTURE LIST*
%ADD10C,0.150000*%
%ADD11C,0.120000*%
%ADD12C,0.127000*%
%ADD13C,0.100000*%
G04 APERTURE END LIST*
D10*
X109261666Y-31264319D02*
X109261666Y-31978604D01*
X109261666Y-31978604D02*
X109214047Y-32121461D01*
X109214047Y-32121461D02*
X109118809Y-32216700D01*
X109118809Y-32216700D02*
X108975952Y-32264319D01*
X108975952Y-32264319D02*
X108880714Y-32264319D01*
X110166428Y-31264319D02*
X109975952Y-31264319D01*
X109975952Y-31264319D02*
X109880714Y-31311938D01*
X109880714Y-31311938D02*
X109833095Y-31359557D01*
X109833095Y-31359557D02*
X109737857Y-31502414D01*
X109737857Y-31502414D02*
X109690238Y-31692890D01*
X109690238Y-31692890D02*
X109690238Y-32073842D01*
X109690238Y-32073842D02*
X109737857Y-32169080D01*
X109737857Y-32169080D02*
X109785476Y-32216700D01*
X109785476Y-32216700D02*
X109880714Y-32264319D01*
X109880714Y-32264319D02*
X110071190Y-32264319D01*
X110071190Y-32264319D02*
X110166428Y-32216700D01*
X110166428Y-32216700D02*
X110214047Y-32169080D01*
X110214047Y-32169080D02*
X110261666Y-32073842D01*
X110261666Y-32073842D02*
X110261666Y-31835747D01*
X110261666Y-31835747D02*
X110214047Y-31740509D01*
X110214047Y-31740509D02*
X110166428Y-31692890D01*
X110166428Y-31692890D02*
X110071190Y-31645271D01*
X110071190Y-31645271D02*
X109880714Y-31645271D01*
X109880714Y-31645271D02*
X109785476Y-31692890D01*
X109785476Y-31692890D02*
X109737857Y-31740509D01*
X109737857Y-31740509D02*
X109690238Y-31835747D01*
X102571619Y-32286966D02*
X102095428Y-32620299D01*
X102571619Y-32858394D02*
X101571619Y-32858394D01*
X101571619Y-32858394D02*
X101571619Y-32477442D01*
X101571619Y-32477442D02*
X101619238Y-32382204D01*
X101619238Y-32382204D02*
X101666857Y-32334585D01*
X101666857Y-32334585D02*
X101762095Y-32286966D01*
X101762095Y-32286966D02*
X101904952Y-32286966D01*
X101904952Y-32286966D02*
X102000190Y-32334585D01*
X102000190Y-32334585D02*
X102047809Y-32382204D01*
X102047809Y-32382204D02*
X102095428Y-32477442D01*
X102095428Y-32477442D02*
X102095428Y-32858394D01*
X101666857Y-31906013D02*
X101619238Y-31858394D01*
X101619238Y-31858394D02*
X101571619Y-31763156D01*
X101571619Y-31763156D02*
X101571619Y-31525061D01*
X101571619Y-31525061D02*
X101619238Y-31429823D01*
X101619238Y-31429823D02*
X101666857Y-31382204D01*
X101666857Y-31382204D02*
X101762095Y-31334585D01*
X101762095Y-31334585D02*
X101857333Y-31334585D01*
X101857333Y-31334585D02*
X102000190Y-31382204D01*
X102000190Y-31382204D02*
X102571619Y-31953632D01*
X102571619Y-31953632D02*
X102571619Y-31334585D01*
X93597833Y-30646619D02*
X93264500Y-30170428D01*
X93026405Y-30646619D02*
X93026405Y-29646619D01*
X93026405Y-29646619D02*
X93407357Y-29646619D01*
X93407357Y-29646619D02*
X93502595Y-29694238D01*
X93502595Y-29694238D02*
X93550214Y-29741857D01*
X93550214Y-29741857D02*
X93597833Y-29837095D01*
X93597833Y-29837095D02*
X93597833Y-29979952D01*
X93597833Y-29979952D02*
X93550214Y-30075190D01*
X93550214Y-30075190D02*
X93502595Y-30122809D01*
X93502595Y-30122809D02*
X93407357Y-30170428D01*
X93407357Y-30170428D02*
X93026405Y-30170428D01*
X94502595Y-29646619D02*
X94026405Y-29646619D01*
X94026405Y-29646619D02*
X93978786Y-30122809D01*
X93978786Y-30122809D02*
X94026405Y-30075190D01*
X94026405Y-30075190D02*
X94121643Y-30027571D01*
X94121643Y-30027571D02*
X94359738Y-30027571D01*
X94359738Y-30027571D02*
X94454976Y-30075190D01*
X94454976Y-30075190D02*
X94502595Y-30122809D01*
X94502595Y-30122809D02*
X94550214Y-30218047D01*
X94550214Y-30218047D02*
X94550214Y-30456142D01*
X94550214Y-30456142D02*
X94502595Y-30551380D01*
X94502595Y-30551380D02*
X94454976Y-30599000D01*
X94454976Y-30599000D02*
X94359738Y-30646619D01*
X94359738Y-30646619D02*
X94121643Y-30646619D01*
X94121643Y-30646619D02*
X94026405Y-30599000D01*
X94026405Y-30599000D02*
X93978786Y-30551380D01*
X89513809Y-33130628D02*
X89513809Y-33606819D01*
X89180476Y-32606819D02*
X89513809Y-33130628D01*
X89513809Y-33130628D02*
X89847142Y-32606819D01*
X90704285Y-33606819D02*
X90132857Y-33606819D01*
X90418571Y-33606819D02*
X90418571Y-32606819D01*
X90418571Y-32606819D02*
X90323333Y-32749676D01*
X90323333Y-32749676D02*
X90228095Y-32844914D01*
X90228095Y-32844914D02*
X90132857Y-32892533D01*
X84059666Y-37387819D02*
X84059666Y-38102104D01*
X84059666Y-38102104D02*
X84012047Y-38244961D01*
X84012047Y-38244961D02*
X83916809Y-38340200D01*
X83916809Y-38340200D02*
X83773952Y-38387819D01*
X83773952Y-38387819D02*
X83678714Y-38387819D01*
X84440619Y-37387819D02*
X85059666Y-37387819D01*
X85059666Y-37387819D02*
X84726333Y-37768771D01*
X84726333Y-37768771D02*
X84869190Y-37768771D01*
X84869190Y-37768771D02*
X84964428Y-37816390D01*
X84964428Y-37816390D02*
X85012047Y-37864009D01*
X85012047Y-37864009D02*
X85059666Y-37959247D01*
X85059666Y-37959247D02*
X85059666Y-38197342D01*
X85059666Y-38197342D02*
X85012047Y-38292580D01*
X85012047Y-38292580D02*
X84964428Y-38340200D01*
X84964428Y-38340200D02*
X84869190Y-38387819D01*
X84869190Y-38387819D02*
X84583476Y-38387819D01*
X84583476Y-38387819D02*
X84488238Y-38340200D01*
X84488238Y-38340200D02*
X84440619Y-38292580D01*
X81327666Y-45531819D02*
X81327666Y-46246104D01*
X81327666Y-46246104D02*
X81280047Y-46388961D01*
X81280047Y-46388961D02*
X81184809Y-46484200D01*
X81184809Y-46484200D02*
X81041952Y-46531819D01*
X81041952Y-46531819D02*
X80946714Y-46531819D01*
X82327666Y-46531819D02*
X81756238Y-46531819D01*
X82041952Y-46531819D02*
X82041952Y-45531819D01*
X82041952Y-45531819D02*
X81946714Y-45674676D01*
X81946714Y-45674676D02*
X81851476Y-45769914D01*
X81851476Y-45769914D02*
X81756238Y-45817533D01*
X87915819Y-51540166D02*
X87439628Y-51873499D01*
X87915819Y-52111594D02*
X86915819Y-52111594D01*
X86915819Y-52111594D02*
X86915819Y-51730642D01*
X86915819Y-51730642D02*
X86963438Y-51635404D01*
X86963438Y-51635404D02*
X87011057Y-51587785D01*
X87011057Y-51587785D02*
X87106295Y-51540166D01*
X87106295Y-51540166D02*
X87249152Y-51540166D01*
X87249152Y-51540166D02*
X87344390Y-51587785D01*
X87344390Y-51587785D02*
X87392009Y-51635404D01*
X87392009Y-51635404D02*
X87439628Y-51730642D01*
X87439628Y-51730642D02*
X87439628Y-52111594D01*
X87344390Y-50968737D02*
X87296771Y-51063975D01*
X87296771Y-51063975D02*
X87249152Y-51111594D01*
X87249152Y-51111594D02*
X87153914Y-51159213D01*
X87153914Y-51159213D02*
X87106295Y-51159213D01*
X87106295Y-51159213D02*
X87011057Y-51111594D01*
X87011057Y-51111594D02*
X86963438Y-51063975D01*
X86963438Y-51063975D02*
X86915819Y-50968737D01*
X86915819Y-50968737D02*
X86915819Y-50778261D01*
X86915819Y-50778261D02*
X86963438Y-50683023D01*
X86963438Y-50683023D02*
X87011057Y-50635404D01*
X87011057Y-50635404D02*
X87106295Y-50587785D01*
X87106295Y-50587785D02*
X87153914Y-50587785D01*
X87153914Y-50587785D02*
X87249152Y-50635404D01*
X87249152Y-50635404D02*
X87296771Y-50683023D01*
X87296771Y-50683023D02*
X87344390Y-50778261D01*
X87344390Y-50778261D02*
X87344390Y-50968737D01*
X87344390Y-50968737D02*
X87392009Y-51063975D01*
X87392009Y-51063975D02*
X87439628Y-51111594D01*
X87439628Y-51111594D02*
X87534866Y-51159213D01*
X87534866Y-51159213D02*
X87725342Y-51159213D01*
X87725342Y-51159213D02*
X87820580Y-51111594D01*
X87820580Y-51111594D02*
X87868200Y-51063975D01*
X87868200Y-51063975D02*
X87915819Y-50968737D01*
X87915819Y-50968737D02*
X87915819Y-50778261D01*
X87915819Y-50778261D02*
X87868200Y-50683023D01*
X87868200Y-50683023D02*
X87820580Y-50635404D01*
X87820580Y-50635404D02*
X87725342Y-50587785D01*
X87725342Y-50587785D02*
X87534866Y-50587785D01*
X87534866Y-50587785D02*
X87439628Y-50635404D01*
X87439628Y-50635404D02*
X87392009Y-50683023D01*
X87392009Y-50683023D02*
X87344390Y-50778261D01*
X88008380Y-44471676D02*
X88008380Y-44989771D01*
X88008380Y-44989771D02*
X88038857Y-45050723D01*
X88038857Y-45050723D02*
X88069333Y-45081200D01*
X88069333Y-45081200D02*
X88130285Y-45111676D01*
X88130285Y-45111676D02*
X88252190Y-45111676D01*
X88252190Y-45111676D02*
X88313142Y-45081200D01*
X88313142Y-45081200D02*
X88343619Y-45050723D01*
X88343619Y-45050723D02*
X88374095Y-44989771D01*
X88374095Y-44989771D02*
X88374095Y-44471676D01*
X88648380Y-44532628D02*
X88678856Y-44502152D01*
X88678856Y-44502152D02*
X88739809Y-44471676D01*
X88739809Y-44471676D02*
X88892190Y-44471676D01*
X88892190Y-44471676D02*
X88953142Y-44502152D01*
X88953142Y-44502152D02*
X88983618Y-44532628D01*
X88983618Y-44532628D02*
X89014095Y-44593580D01*
X89014095Y-44593580D02*
X89014095Y-44654533D01*
X89014095Y-44654533D02*
X88983618Y-44745961D01*
X88983618Y-44745961D02*
X88617904Y-45111676D01*
X88617904Y-45111676D02*
X89014095Y-45111676D01*
X101250819Y-42015166D02*
X100774628Y-42348499D01*
X101250819Y-42586594D02*
X100250819Y-42586594D01*
X100250819Y-42586594D02*
X100250819Y-42205642D01*
X100250819Y-42205642D02*
X100298438Y-42110404D01*
X100298438Y-42110404D02*
X100346057Y-42062785D01*
X100346057Y-42062785D02*
X100441295Y-42015166D01*
X100441295Y-42015166D02*
X100584152Y-42015166D01*
X100584152Y-42015166D02*
X100679390Y-42062785D01*
X100679390Y-42062785D02*
X100727009Y-42110404D01*
X100727009Y-42110404D02*
X100774628Y-42205642D01*
X100774628Y-42205642D02*
X100774628Y-42586594D01*
X100584152Y-41158023D02*
X101250819Y-41158023D01*
X100203200Y-41396118D02*
X100917485Y-41634213D01*
X100917485Y-41634213D02*
X100917485Y-41015166D01*
X100061666Y-34212819D02*
X100061666Y-34927104D01*
X100061666Y-34927104D02*
X100014047Y-35069961D01*
X100014047Y-35069961D02*
X99918809Y-35165200D01*
X99918809Y-35165200D02*
X99775952Y-35212819D01*
X99775952Y-35212819D02*
X99680714Y-35212819D01*
X101014047Y-34212819D02*
X100537857Y-34212819D01*
X100537857Y-34212819D02*
X100490238Y-34689009D01*
X100490238Y-34689009D02*
X100537857Y-34641390D01*
X100537857Y-34641390D02*
X100633095Y-34593771D01*
X100633095Y-34593771D02*
X100871190Y-34593771D01*
X100871190Y-34593771D02*
X100966428Y-34641390D01*
X100966428Y-34641390D02*
X101014047Y-34689009D01*
X101014047Y-34689009D02*
X101061666Y-34784247D01*
X101061666Y-34784247D02*
X101061666Y-35022342D01*
X101061666Y-35022342D02*
X101014047Y-35117580D01*
X101014047Y-35117580D02*
X100966428Y-35165200D01*
X100966428Y-35165200D02*
X100871190Y-35212819D01*
X100871190Y-35212819D02*
X100633095Y-35212819D01*
X100633095Y-35212819D02*
X100537857Y-35165200D01*
X100537857Y-35165200D02*
X100490238Y-35117580D01*
X96541833Y-44735819D02*
X96208500Y-44259628D01*
X95970405Y-44735819D02*
X95970405Y-43735819D01*
X95970405Y-43735819D02*
X96351357Y-43735819D01*
X96351357Y-43735819D02*
X96446595Y-43783438D01*
X96446595Y-43783438D02*
X96494214Y-43831057D01*
X96494214Y-43831057D02*
X96541833Y-43926295D01*
X96541833Y-43926295D02*
X96541833Y-44069152D01*
X96541833Y-44069152D02*
X96494214Y-44164390D01*
X96494214Y-44164390D02*
X96446595Y-44212009D01*
X96446595Y-44212009D02*
X96351357Y-44259628D01*
X96351357Y-44259628D02*
X95970405Y-44259628D01*
X96875167Y-43735819D02*
X97494214Y-43735819D01*
X97494214Y-43735819D02*
X97160881Y-44116771D01*
X97160881Y-44116771D02*
X97303738Y-44116771D01*
X97303738Y-44116771D02*
X97398976Y-44164390D01*
X97398976Y-44164390D02*
X97446595Y-44212009D01*
X97446595Y-44212009D02*
X97494214Y-44307247D01*
X97494214Y-44307247D02*
X97494214Y-44545342D01*
X97494214Y-44545342D02*
X97446595Y-44640580D01*
X97446595Y-44640580D02*
X97398976Y-44688200D01*
X97398976Y-44688200D02*
X97303738Y-44735819D01*
X97303738Y-44735819D02*
X97018024Y-44735819D01*
X97018024Y-44735819D02*
X96922786Y-44688200D01*
X96922786Y-44688200D02*
X96875167Y-44640580D01*
X102220666Y-48944819D02*
X102220666Y-49659104D01*
X102220666Y-49659104D02*
X102173047Y-49801961D01*
X102173047Y-49801961D02*
X102077809Y-49897200D01*
X102077809Y-49897200D02*
X101934952Y-49944819D01*
X101934952Y-49944819D02*
X101839714Y-49944819D01*
X103125428Y-49278152D02*
X103125428Y-49944819D01*
X102887333Y-48897200D02*
X102649238Y-49611485D01*
X102649238Y-49611485D02*
X103268285Y-49611485D01*
X96448665Y-39921725D02*
X97086086Y-39921725D01*
X97086086Y-39921725D02*
X97161076Y-39884230D01*
X97161076Y-39884230D02*
X97198572Y-39846734D01*
X97198572Y-39846734D02*
X97236067Y-39771744D01*
X97236067Y-39771744D02*
X97236067Y-39621762D01*
X97236067Y-39621762D02*
X97198572Y-39546772D01*
X97198572Y-39546772D02*
X97161076Y-39509276D01*
X97161076Y-39509276D02*
X97086086Y-39471781D01*
X97086086Y-39471781D02*
X96448665Y-39471781D01*
X97236067Y-38684379D02*
X97236067Y-39134323D01*
X97236067Y-38909351D02*
X96448665Y-38909351D01*
X96448665Y-38909351D02*
X96561151Y-38984342D01*
X96561151Y-38984342D02*
X96636142Y-39059333D01*
X96636142Y-39059333D02*
X96673637Y-39134323D01*
X84107580Y-49735166D02*
X84155200Y-49782785D01*
X84155200Y-49782785D02*
X84202819Y-49925642D01*
X84202819Y-49925642D02*
X84202819Y-50020880D01*
X84202819Y-50020880D02*
X84155200Y-50163737D01*
X84155200Y-50163737D02*
X84059961Y-50258975D01*
X84059961Y-50258975D02*
X83964723Y-50306594D01*
X83964723Y-50306594D02*
X83774247Y-50354213D01*
X83774247Y-50354213D02*
X83631390Y-50354213D01*
X83631390Y-50354213D02*
X83440914Y-50306594D01*
X83440914Y-50306594D02*
X83345676Y-50258975D01*
X83345676Y-50258975D02*
X83250438Y-50163737D01*
X83250438Y-50163737D02*
X83202819Y-50020880D01*
X83202819Y-50020880D02*
X83202819Y-49925642D01*
X83202819Y-49925642D02*
X83250438Y-49782785D01*
X83250438Y-49782785D02*
X83298057Y-49735166D01*
X84202819Y-48782785D02*
X84202819Y-49354213D01*
X84202819Y-49068499D02*
X83202819Y-49068499D01*
X83202819Y-49068499D02*
X83345676Y-49163737D01*
X83345676Y-49163737D02*
X83440914Y-49258975D01*
X83440914Y-49258975D02*
X83488533Y-49354213D01*
X102477819Y-37947166D02*
X102001628Y-38280499D01*
X102477819Y-38518594D02*
X101477819Y-38518594D01*
X101477819Y-38518594D02*
X101477819Y-38137642D01*
X101477819Y-38137642D02*
X101525438Y-38042404D01*
X101525438Y-38042404D02*
X101573057Y-37994785D01*
X101573057Y-37994785D02*
X101668295Y-37947166D01*
X101668295Y-37947166D02*
X101811152Y-37947166D01*
X101811152Y-37947166D02*
X101906390Y-37994785D01*
X101906390Y-37994785D02*
X101954009Y-38042404D01*
X101954009Y-38042404D02*
X102001628Y-38137642D01*
X102001628Y-38137642D02*
X102001628Y-38518594D01*
X102477819Y-36994785D02*
X102477819Y-37566213D01*
X102477819Y-37280499D02*
X101477819Y-37280499D01*
X101477819Y-37280499D02*
X101620676Y-37375737D01*
X101620676Y-37375737D02*
X101715914Y-37470975D01*
X101715914Y-37470975D02*
X101763533Y-37566213D01*
X103177642Y-36480819D02*
X102844309Y-36004628D01*
X102606214Y-36480819D02*
X102606214Y-35480819D01*
X102606214Y-35480819D02*
X102987166Y-35480819D01*
X102987166Y-35480819D02*
X103082404Y-35528438D01*
X103082404Y-35528438D02*
X103130023Y-35576057D01*
X103130023Y-35576057D02*
X103177642Y-35671295D01*
X103177642Y-35671295D02*
X103177642Y-35814152D01*
X103177642Y-35814152D02*
X103130023Y-35909390D01*
X103130023Y-35909390D02*
X103082404Y-35957009D01*
X103082404Y-35957009D02*
X102987166Y-36004628D01*
X102987166Y-36004628D02*
X102606214Y-36004628D01*
X104130023Y-36480819D02*
X103558595Y-36480819D01*
X103844309Y-36480819D02*
X103844309Y-35480819D01*
X103844309Y-35480819D02*
X103749071Y-35623676D01*
X103749071Y-35623676D02*
X103653833Y-35718914D01*
X103653833Y-35718914D02*
X103558595Y-35766533D01*
X104510976Y-35576057D02*
X104558595Y-35528438D01*
X104558595Y-35528438D02*
X104653833Y-35480819D01*
X104653833Y-35480819D02*
X104891928Y-35480819D01*
X104891928Y-35480819D02*
X104987166Y-35528438D01*
X104987166Y-35528438D02*
X105034785Y-35576057D01*
X105034785Y-35576057D02*
X105082404Y-35671295D01*
X105082404Y-35671295D02*
X105082404Y-35766533D01*
X105082404Y-35766533D02*
X105034785Y-35909390D01*
X105034785Y-35909390D02*
X104463357Y-36480819D01*
X104463357Y-36480819D02*
X105082404Y-36480819D01*
X80666833Y-29495819D02*
X80333500Y-29019628D01*
X80095405Y-29495819D02*
X80095405Y-28495819D01*
X80095405Y-28495819D02*
X80476357Y-28495819D01*
X80476357Y-28495819D02*
X80571595Y-28543438D01*
X80571595Y-28543438D02*
X80619214Y-28591057D01*
X80619214Y-28591057D02*
X80666833Y-28686295D01*
X80666833Y-28686295D02*
X80666833Y-28829152D01*
X80666833Y-28829152D02*
X80619214Y-28924390D01*
X80619214Y-28924390D02*
X80571595Y-28972009D01*
X80571595Y-28972009D02*
X80476357Y-29019628D01*
X80476357Y-29019628D02*
X80095405Y-29019628D01*
X81143024Y-29495819D02*
X81333500Y-29495819D01*
X81333500Y-29495819D02*
X81428738Y-29448200D01*
X81428738Y-29448200D02*
X81476357Y-29400580D01*
X81476357Y-29400580D02*
X81571595Y-29257723D01*
X81571595Y-29257723D02*
X81619214Y-29067247D01*
X81619214Y-29067247D02*
X81619214Y-28686295D01*
X81619214Y-28686295D02*
X81571595Y-28591057D01*
X81571595Y-28591057D02*
X81523976Y-28543438D01*
X81523976Y-28543438D02*
X81428738Y-28495819D01*
X81428738Y-28495819D02*
X81238262Y-28495819D01*
X81238262Y-28495819D02*
X81143024Y-28543438D01*
X81143024Y-28543438D02*
X81095405Y-28591057D01*
X81095405Y-28591057D02*
X81047786Y-28686295D01*
X81047786Y-28686295D02*
X81047786Y-28924390D01*
X81047786Y-28924390D02*
X81095405Y-29019628D01*
X81095405Y-29019628D02*
X81143024Y-29067247D01*
X81143024Y-29067247D02*
X81238262Y-29114866D01*
X81238262Y-29114866D02*
X81428738Y-29114866D01*
X81428738Y-29114866D02*
X81523976Y-29067247D01*
X81523976Y-29067247D02*
X81571595Y-29019628D01*
X81571595Y-29019628D02*
X81619214Y-28924390D01*
X84232819Y-44489666D02*
X83756628Y-44822999D01*
X84232819Y-45061094D02*
X83232819Y-45061094D01*
X83232819Y-45061094D02*
X83232819Y-44680142D01*
X83232819Y-44680142D02*
X83280438Y-44584904D01*
X83280438Y-44584904D02*
X83328057Y-44537285D01*
X83328057Y-44537285D02*
X83423295Y-44489666D01*
X83423295Y-44489666D02*
X83566152Y-44489666D01*
X83566152Y-44489666D02*
X83661390Y-44537285D01*
X83661390Y-44537285D02*
X83709009Y-44584904D01*
X83709009Y-44584904D02*
X83756628Y-44680142D01*
X83756628Y-44680142D02*
X83756628Y-45061094D01*
X83232819Y-43632523D02*
X83232819Y-43822999D01*
X83232819Y-43822999D02*
X83280438Y-43918237D01*
X83280438Y-43918237D02*
X83328057Y-43965856D01*
X83328057Y-43965856D02*
X83470914Y-44061094D01*
X83470914Y-44061094D02*
X83661390Y-44108713D01*
X83661390Y-44108713D02*
X84042342Y-44108713D01*
X84042342Y-44108713D02*
X84137580Y-44061094D01*
X84137580Y-44061094D02*
X84185200Y-44013475D01*
X84185200Y-44013475D02*
X84232819Y-43918237D01*
X84232819Y-43918237D02*
X84232819Y-43727761D01*
X84232819Y-43727761D02*
X84185200Y-43632523D01*
X84185200Y-43632523D02*
X84137580Y-43584904D01*
X84137580Y-43584904D02*
X84042342Y-43537285D01*
X84042342Y-43537285D02*
X83804247Y-43537285D01*
X83804247Y-43537285D02*
X83709009Y-43584904D01*
X83709009Y-43584904D02*
X83661390Y-43632523D01*
X83661390Y-43632523D02*
X83613771Y-43727761D01*
X83613771Y-43727761D02*
X83613771Y-43918237D01*
X83613771Y-43918237D02*
X83661390Y-44013475D01*
X83661390Y-44013475D02*
X83709009Y-44061094D01*
X83709009Y-44061094D02*
X83804247Y-44108713D01*
X96545833Y-41941819D02*
X96212500Y-41465628D01*
X95974405Y-41941819D02*
X95974405Y-40941819D01*
X95974405Y-40941819D02*
X96355357Y-40941819D01*
X96355357Y-40941819D02*
X96450595Y-40989438D01*
X96450595Y-40989438D02*
X96498214Y-41037057D01*
X96498214Y-41037057D02*
X96545833Y-41132295D01*
X96545833Y-41132295D02*
X96545833Y-41275152D01*
X96545833Y-41275152D02*
X96498214Y-41370390D01*
X96498214Y-41370390D02*
X96450595Y-41418009D01*
X96450595Y-41418009D02*
X96355357Y-41465628D01*
X96355357Y-41465628D02*
X95974405Y-41465628D01*
X96879167Y-40941819D02*
X97545833Y-40941819D01*
X97545833Y-40941819D02*
X97117262Y-41941819D01*
X86993833Y-30657580D02*
X86946214Y-30705200D01*
X86946214Y-30705200D02*
X86803357Y-30752819D01*
X86803357Y-30752819D02*
X86708119Y-30752819D01*
X86708119Y-30752819D02*
X86565262Y-30705200D01*
X86565262Y-30705200D02*
X86470024Y-30609961D01*
X86470024Y-30609961D02*
X86422405Y-30514723D01*
X86422405Y-30514723D02*
X86374786Y-30324247D01*
X86374786Y-30324247D02*
X86374786Y-30181390D01*
X86374786Y-30181390D02*
X86422405Y-29990914D01*
X86422405Y-29990914D02*
X86470024Y-29895676D01*
X86470024Y-29895676D02*
X86565262Y-29800438D01*
X86565262Y-29800438D02*
X86708119Y-29752819D01*
X86708119Y-29752819D02*
X86803357Y-29752819D01*
X86803357Y-29752819D02*
X86946214Y-29800438D01*
X86946214Y-29800438D02*
X86993833Y-29848057D01*
X87327167Y-29752819D02*
X87946214Y-29752819D01*
X87946214Y-29752819D02*
X87612881Y-30133771D01*
X87612881Y-30133771D02*
X87755738Y-30133771D01*
X87755738Y-30133771D02*
X87850976Y-30181390D01*
X87850976Y-30181390D02*
X87898595Y-30229009D01*
X87898595Y-30229009D02*
X87946214Y-30324247D01*
X87946214Y-30324247D02*
X87946214Y-30562342D01*
X87946214Y-30562342D02*
X87898595Y-30657580D01*
X87898595Y-30657580D02*
X87850976Y-30705200D01*
X87850976Y-30705200D02*
X87755738Y-30752819D01*
X87755738Y-30752819D02*
X87470024Y-30752819D01*
X87470024Y-30752819D02*
X87374786Y-30705200D01*
X87374786Y-30705200D02*
X87327167Y-30657580D01*
X106287819Y-27505357D02*
X105811628Y-27838690D01*
X106287819Y-28076785D02*
X105287819Y-28076785D01*
X105287819Y-28076785D02*
X105287819Y-27695833D01*
X105287819Y-27695833D02*
X105335438Y-27600595D01*
X105335438Y-27600595D02*
X105383057Y-27552976D01*
X105383057Y-27552976D02*
X105478295Y-27505357D01*
X105478295Y-27505357D02*
X105621152Y-27505357D01*
X105621152Y-27505357D02*
X105716390Y-27552976D01*
X105716390Y-27552976D02*
X105764009Y-27600595D01*
X105764009Y-27600595D02*
X105811628Y-27695833D01*
X105811628Y-27695833D02*
X105811628Y-28076785D01*
X106287819Y-26552976D02*
X106287819Y-27124404D01*
X106287819Y-26838690D02*
X105287819Y-26838690D01*
X105287819Y-26838690D02*
X105430676Y-26933928D01*
X105430676Y-26933928D02*
X105525914Y-27029166D01*
X105525914Y-27029166D02*
X105573533Y-27124404D01*
X105287819Y-25933928D02*
X105287819Y-25838690D01*
X105287819Y-25838690D02*
X105335438Y-25743452D01*
X105335438Y-25743452D02*
X105383057Y-25695833D01*
X105383057Y-25695833D02*
X105478295Y-25648214D01*
X105478295Y-25648214D02*
X105668771Y-25600595D01*
X105668771Y-25600595D02*
X105906866Y-25600595D01*
X105906866Y-25600595D02*
X106097342Y-25648214D01*
X106097342Y-25648214D02*
X106192580Y-25695833D01*
X106192580Y-25695833D02*
X106240200Y-25743452D01*
X106240200Y-25743452D02*
X106287819Y-25838690D01*
X106287819Y-25838690D02*
X106287819Y-25933928D01*
X106287819Y-25933928D02*
X106240200Y-26029166D01*
X106240200Y-26029166D02*
X106192580Y-26076785D01*
X106192580Y-26076785D02*
X106097342Y-26124404D01*
X106097342Y-26124404D02*
X105906866Y-26172023D01*
X105906866Y-26172023D02*
X105668771Y-26172023D01*
X105668771Y-26172023D02*
X105478295Y-26124404D01*
X105478295Y-26124404D02*
X105383057Y-26076785D01*
X105383057Y-26076785D02*
X105335438Y-26029166D01*
X105335438Y-26029166D02*
X105287819Y-25933928D01*
X99748642Y-26955819D02*
X99415309Y-26479628D01*
X99177214Y-26955819D02*
X99177214Y-25955819D01*
X99177214Y-25955819D02*
X99558166Y-25955819D01*
X99558166Y-25955819D02*
X99653404Y-26003438D01*
X99653404Y-26003438D02*
X99701023Y-26051057D01*
X99701023Y-26051057D02*
X99748642Y-26146295D01*
X99748642Y-26146295D02*
X99748642Y-26289152D01*
X99748642Y-26289152D02*
X99701023Y-26384390D01*
X99701023Y-26384390D02*
X99653404Y-26432009D01*
X99653404Y-26432009D02*
X99558166Y-26479628D01*
X99558166Y-26479628D02*
X99177214Y-26479628D01*
X100701023Y-26955819D02*
X100129595Y-26955819D01*
X100415309Y-26955819D02*
X100415309Y-25955819D01*
X100415309Y-25955819D02*
X100320071Y-26098676D01*
X100320071Y-26098676D02*
X100224833Y-26193914D01*
X100224833Y-26193914D02*
X100129595Y-26241533D01*
X101653404Y-26955819D02*
X101081976Y-26955819D01*
X101367690Y-26955819D02*
X101367690Y-25955819D01*
X101367690Y-25955819D02*
X101272452Y-26098676D01*
X101272452Y-26098676D02*
X101177214Y-26193914D01*
X101177214Y-26193914D02*
X101081976Y-26241533D01*
D11*
%TO.C,J6*%
X107400000Y-37659500D02*
X107400000Y-38159500D01*
X107400000Y-38159500D02*
X107900000Y-37909500D01*
X107900000Y-37909500D02*
X107400000Y-37659500D01*
%TO.C,R2*%
X103026800Y-32847364D02*
X103026800Y-31393236D01*
X104846800Y-32847364D02*
X104846800Y-31393236D01*
%TO.C,R5*%
X94491564Y-27461800D02*
X93037436Y-27461800D01*
X94491564Y-29281800D02*
X93037436Y-29281800D01*
%TO.C,Y1*%
X87290000Y-33952000D02*
X87290000Y-38452000D01*
X87290000Y-38452000D02*
X92690000Y-38452000D01*
%TO.C,J3*%
X85393000Y-35433000D02*
G75*
G02*
X81993000Y-35433000I-1700000J0D01*
G01*
X81993000Y-35433000D02*
G75*
G02*
X85393000Y-35433000I1700000J0D01*
G01*
%TO.C,J1*%
X80331000Y-42037000D02*
X80331000Y-39437000D01*
X80331000Y-44637000D02*
X80331000Y-43307000D01*
X81661000Y-44637000D02*
X80331000Y-44637000D01*
X82991000Y-39437000D02*
X80331000Y-39437000D01*
X82991000Y-42037000D02*
X80331000Y-42037000D01*
X82991000Y-42037000D02*
X82991000Y-39437000D01*
%TO.C,R8*%
X88371000Y-52100564D02*
X88371000Y-50646436D01*
X90191000Y-52100564D02*
X90191000Y-50646436D01*
D12*
%TO.C,U2*%
X87118000Y-41669000D02*
X87118000Y-42139000D01*
X87118000Y-41669000D02*
X87588000Y-41669000D01*
X87118000Y-44209000D02*
X87118000Y-43739000D01*
X87118000Y-44209000D02*
X87588000Y-44209000D01*
X89658000Y-41669000D02*
X89188000Y-41669000D01*
X89658000Y-41669000D02*
X89658000Y-42139000D01*
X89658000Y-44209000D02*
X89188000Y-44209000D01*
X89658000Y-44209000D02*
X89658000Y-43739000D01*
D10*
X89963000Y-43839000D02*
G75*
G02*
X89813000Y-43839000I-75000J0D01*
G01*
X89813000Y-43839000D02*
G75*
G02*
X89963000Y-43839000I75000J0D01*
G01*
D11*
%TO.C,R4*%
X101706000Y-42575564D02*
X101706000Y-41121436D01*
X103526000Y-42575564D02*
X103526000Y-41121436D01*
%TO.C,C2*%
X80878000Y-50304352D02*
X80878000Y-48881848D01*
X82698000Y-50304352D02*
X82698000Y-48881848D01*
%TO.C,J5*%
X101395000Y-32258000D02*
G75*
G02*
X97995000Y-32258000I-1700000J0D01*
G01*
X97995000Y-32258000D02*
G75*
G02*
X101395000Y-32258000I1700000J0D01*
G01*
%TO.C,R3*%
X95981436Y-45191000D02*
X97435564Y-45191000D01*
X95981436Y-47011000D02*
X97435564Y-47011000D01*
%TO.C,J4*%
X103554000Y-46990000D02*
G75*
G02*
X100154000Y-46990000I-1700000J0D01*
G01*
X100154000Y-46990000D02*
G75*
G02*
X103554000Y-46990000I1700000J0D01*
G01*
%TO.C,U1*%
X95349600Y-37791800D02*
X95349600Y-37791800D01*
X95349600Y-40851800D02*
X95349600Y-40851800D01*
X95349600Y-40851800D02*
X96389600Y-40851800D01*
X96389600Y-37791800D02*
X95349600Y-37791800D01*
X97369600Y-40851800D02*
X98409600Y-40851800D01*
X98409600Y-37791800D02*
X97369600Y-37791800D01*
X98409600Y-37791800D02*
X98409600Y-37791800D01*
X98409600Y-40851800D02*
X98409600Y-40851800D01*
D13*
X94949600Y-38121800D02*
G75*
G02*
X94849600Y-38121800I-50000J0D01*
G01*
X94849600Y-38121800D02*
G75*
G02*
X94949600Y-38121800I50000J0D01*
G01*
D11*
%TO.C,C1*%
X84688000Y-50279752D02*
X84688000Y-48857248D01*
X86508000Y-50279752D02*
X86508000Y-48857248D01*
%TO.C,R1*%
X99293000Y-37053436D02*
X99293000Y-38507564D01*
X101113000Y-37053436D02*
X101113000Y-38507564D01*
%TO.C,R12*%
X103093436Y-36936000D02*
X104547564Y-36936000D01*
X103093436Y-38756000D02*
X104547564Y-38756000D01*
%TO.C,R9*%
X80106436Y-29951000D02*
X81560564Y-29951000D01*
X80106436Y-31771000D02*
X81560564Y-31771000D01*
%TO.C,R6*%
X84688000Y-45050064D02*
X84688000Y-43595936D01*
X86508000Y-45050064D02*
X86508000Y-43595936D01*
%TO.C,R7*%
X95985436Y-42397000D02*
X97439564Y-42397000D01*
X95985436Y-44217000D02*
X97439564Y-44217000D01*
%TO.C,C3*%
X87871752Y-27538000D02*
X86449248Y-27538000D01*
X87871752Y-29358000D02*
X86449248Y-29358000D01*
%TO.C,R10*%
X103103000Y-26135436D02*
X103103000Y-27589564D01*
X104923000Y-26135436D02*
X104923000Y-27589564D01*
%TO.C,R11*%
X99664436Y-27411000D02*
X101118564Y-27411000D01*
X99664436Y-29231000D02*
X101118564Y-29231000D01*
%TO.C,J2*%
X93666000Y-50079600D02*
X94996000Y-50079600D01*
X93666000Y-51409600D02*
X93666000Y-50079600D01*
X96266000Y-50079600D02*
X103946000Y-50079600D01*
X96266000Y-52739600D02*
X96266000Y-50079600D01*
X96266000Y-52739600D02*
X103946000Y-52739600D01*
X103946000Y-52739600D02*
X103946000Y-50079600D01*
%TD*%
M02*
