%TF.GenerationSoftware,KiCad,Pcbnew,9.0.0*%
%TF.CreationDate,2025-03-07T11:03:18+01:00*%
%TF.ProjectId,PCB_rigide,5043425f-7269-4676-9964-652e6b696361,rev?*%
%TF.SameCoordinates,Original*%
%TF.FileFunction,Copper,L1,Top*%
%TF.FilePolarity,Positive*%
%FSLAX46Y46*%
G04 Gerber Fmt 4.6, Leading zero omitted, Abs format (unit mm)*
G04 Created by KiCad (PCBNEW 9.0.0) date 2025-03-07 11:03:18*
%MOMM*%
%LPD*%
G01*
G04 APERTURE LIST*
G04 Aperture macros list*
%AMRoundRect*
0 Rectangle with rounded corners*
0 $1 Rounding radius*
0 $2 $3 $4 $5 $6 $7 $8 $9 X,Y pos of 4 corners*
0 Add a 4 corners polygon primitive as box body*
4,1,4,$2,$3,$4,$5,$6,$7,$8,$9,$2,$3,0*
0 Add four circle primitives for the rounded corners*
1,1,$1+$1,$2,$3*
1,1,$1+$1,$4,$5*
1,1,$1+$1,$6,$7*
1,1,$1+$1,$8,$9*
0 Add four rect primitives between the rounded corners*
20,1,$1+$1,$2,$3,$4,$5,0*
20,1,$1+$1,$4,$5,$6,$7,0*
20,1,$1+$1,$6,$7,$8,$9,0*
20,1,$1+$1,$8,$9,$2,$3,0*%
%AMFreePoly0*
4,1,14,0.849707,0.749707,0.850000,0.749000,0.850000,-0.749000,0.849707,-0.749707,0.849000,-0.750000,-0.750000,-0.750000,-0.750000,-0.550414,-0.849707,-0.450707,-0.850000,-0.450000,-0.850000,0.749000,-0.849707,0.749707,-0.849000,0.750000,0.849000,0.750000,0.849707,0.749707,0.849707,0.749707,$1*%
G04 Aperture macros list end*
%TA.AperFunction,EtchedComponent*%
%ADD10C,0.000000*%
%TD*%
%TA.AperFunction,ComponentPad*%
%ADD11C,3.000000*%
%TD*%
%TA.AperFunction,SMDPad,CuDef*%
%ADD12RoundRect,0.250000X-0.312500X-0.625000X0.312500X-0.625000X0.312500X0.625000X-0.312500X0.625000X0*%
%TD*%
%TA.AperFunction,ConnectorPad*%
%ADD13R,0.500000X0.500000*%
%TD*%
%TA.AperFunction,ComponentPad*%
%ADD14R,0.500000X0.900000*%
%TD*%
%TA.AperFunction,SMDPad,CuDef*%
%ADD15RoundRect,0.250000X-0.625000X0.312500X-0.625000X-0.312500X0.625000X-0.312500X0.625000X0.312500X0*%
%TD*%
%TA.AperFunction,SMDPad,CuDef*%
%ADD16RoundRect,0.250000X0.625000X-0.312500X0.625000X0.312500X-0.625000X0.312500X-0.625000X-0.312500X0*%
%TD*%
%TA.AperFunction,SMDPad,CuDef*%
%ADD17RoundRect,0.250000X0.650000X-0.412500X0.650000X0.412500X-0.650000X0.412500X-0.650000X-0.412500X0*%
%TD*%
%TA.AperFunction,ComponentPad*%
%ADD18O,1.700000X1.700000*%
%TD*%
%TA.AperFunction,ComponentPad*%
%ADD19R,1.700000X1.700000*%
%TD*%
%TA.AperFunction,SMDPad,CuDef*%
%ADD20RoundRect,0.250000X0.312500X0.625000X-0.312500X0.625000X-0.312500X-0.625000X0.312500X-0.625000X0*%
%TD*%
%TA.AperFunction,SMDPad,CuDef*%
%ADD21R,2.100000X1.800000*%
%TD*%
%TA.AperFunction,SMDPad,CuDef*%
%ADD22R,0.350000X0.300000*%
%TD*%
%TA.AperFunction,SMDPad,CuDef*%
%ADD23R,0.300000X0.350000*%
%TD*%
%TA.AperFunction,SMDPad,CuDef*%
%ADD24RoundRect,0.060500X-0.269500X0.049500X-0.269500X-0.049500X0.269500X-0.049500X0.269500X0.049500X0*%
%TD*%
%TA.AperFunction,SMDPad,CuDef*%
%ADD25RoundRect,0.060500X-0.049500X0.269500X-0.049500X-0.269500X0.049500X-0.269500X0.049500X0.269500X0*%
%TD*%
%TA.AperFunction,SMDPad,CuDef*%
%ADD26FreePoly0,270.000000*%
%TD*%
%TA.AperFunction,SMDPad,CuDef*%
%ADD27RoundRect,0.250000X0.412500X0.650000X-0.412500X0.650000X-0.412500X-0.650000X0.412500X-0.650000X0*%
%TD*%
%TA.AperFunction,Conductor*%
%ADD28C,0.150000*%
%TD*%
%TA.AperFunction,Conductor*%
%ADD29C,0.250000*%
%TD*%
G04 APERTURE END LIST*
D10*
%TA.AperFunction,EtchedComponent*%
%TO.C,AE1*%
G36*
X106800215Y-35364000D02*
G01*
X111957000Y-35364000D01*
X111957000Y-40364000D01*
X109317000Y-40364000D01*
X109317000Y-42364000D01*
X111957000Y-42364000D01*
X111957000Y-45064000D01*
X109317000Y-45064000D01*
X109317000Y-47064000D01*
X111957000Y-47064000D01*
X111957000Y-49764000D01*
X107517000Y-49764000D01*
X107517000Y-49264000D01*
X111457000Y-49264000D01*
X111457000Y-47564000D01*
X108817000Y-47564000D01*
X108817000Y-44564000D01*
X111457000Y-44564000D01*
X111457000Y-42864000D01*
X108817000Y-42864000D01*
X108817000Y-39864000D01*
X111457000Y-39864000D01*
X111457000Y-38164000D01*
X106557000Y-38164000D01*
X106557000Y-37664000D01*
X111457000Y-37664000D01*
X111457000Y-36264000D01*
X106557000Y-36264000D01*
X106557000Y-35788844D01*
X106660957Y-35788844D01*
X106661700Y-35837363D01*
X106674600Y-35882878D01*
X106685213Y-35901489D01*
X106720447Y-35935132D01*
X106765632Y-35955691D01*
X106815158Y-35962222D01*
X106863417Y-35953782D01*
X106895643Y-35936888D01*
X106928313Y-35901628D01*
X106948408Y-35856318D01*
X106954982Y-35806733D01*
X106947092Y-35758647D01*
X106930186Y-35725755D01*
X106893416Y-35690815D01*
X106848622Y-35671153D01*
X106800215Y-35666417D01*
X106752605Y-35676258D01*
X106710203Y-35700326D01*
X106677419Y-35738269D01*
X106673065Y-35746181D01*
X106660957Y-35788844D01*
X106557000Y-35788844D01*
X106557000Y-35364000D01*
X106800215Y-35364000D01*
G37*
%TD.AperFunction*%
%TD*%
D11*
%TO.P,J3,1,Pin_1*%
%TO.N,XO_N*%
X83693000Y-35433000D03*
%TD*%
D12*
%TO.P,R12,1*%
%TO.N,RF_TX*%
X102358000Y-37846000D03*
%TO.P,R12,2*%
X105283000Y-37846000D03*
%TD*%
D13*
%TO.P,AE1,1*%
%TO.N,RF_TX*%
X106807000Y-37914000D03*
D14*
%TO.P,AE1,2*%
%TO.N,GND*%
X106807000Y-35814000D03*
%TD*%
D15*
%TO.P,R10,1*%
%TO.N,VCC*%
X104013000Y-25400000D03*
%TO.P,R10,2*%
%TO.N,I2C_SCL*%
X104013000Y-28325000D03*
%TD*%
D16*
%TO.P,R4,2*%
%TO.N,I2C_SDA*%
X102616000Y-40386000D03*
%TO.P,R4,1*%
X102616000Y-43311000D03*
%TD*%
D15*
%TO.P,R1,2*%
%TO.N,VCC*%
X100203000Y-39243000D03*
%TO.P,R1,1*%
X100203000Y-36318000D03*
%TD*%
D12*
%TO.P,R9,1*%
%TO.N,GND*%
X79371000Y-30861000D03*
%TO.P,R9,2*%
X82296000Y-30861000D03*
%TD*%
D17*
%TO.P,C1,2*%
%TO.N,GND*%
X85598000Y-48006000D03*
%TO.P,C1,1*%
%TO.N,VCC*%
X85598000Y-51131000D03*
%TD*%
D16*
%TO.P,R8,1*%
%TO.N,GND*%
X89281000Y-52836000D03*
%TO.P,R8,2*%
X89281000Y-49911000D03*
%TD*%
%TO.P,R6,1*%
%TO.N,GND*%
X85598000Y-45785500D03*
%TO.P,R6,2*%
X85598000Y-42860500D03*
%TD*%
D18*
%TO.P,J2,4,Pin_4*%
%TO.N,GND*%
X102616000Y-51409600D03*
%TO.P,J2,3,Pin_3*%
%TO.N,UART_TX*%
X100076000Y-51409600D03*
%TO.P,J2,2,Pin_2*%
%TO.N,UART_RX*%
X97536000Y-51409600D03*
D19*
%TO.P,J2,1,Pin_1*%
%TO.N,VCC*%
X94996000Y-51409600D03*
%TD*%
D12*
%TO.P,R7,1*%
%TO.N,I2C_SDA*%
X95250000Y-43307000D03*
%TO.P,R7,2*%
X98175000Y-43307000D03*
%TD*%
D16*
%TO.P,R2,1*%
%TO.N,I2C_SDA*%
X103936800Y-33582800D03*
%TO.P,R2,2*%
X103936800Y-30657800D03*
%TD*%
D20*
%TO.P,R5,1*%
%TO.N,VCC*%
X95227000Y-28371800D03*
%TO.P,R5,2*%
%TO.N,Net-(U1-EN)*%
X92302000Y-28371800D03*
%TD*%
D21*
%TO.P,Y1,1,1*%
%TO.N,XO_P*%
X88540000Y-37352000D03*
%TO.P,Y1,2,2*%
%TO.N,GND*%
X91440000Y-37352000D03*
%TO.P,Y1,3,3*%
%TO.N,XO_N*%
X91440000Y-35052000D03*
%TO.P,Y1,4,4*%
%TO.N,GND*%
X88540000Y-35052000D03*
%TD*%
D19*
%TO.P,J1,1,Pin_1*%
%TO.N,VCC*%
X81661000Y-43307000D03*
D18*
%TO.P,J1,2,Pin_2*%
%TO.N,GND*%
X81661000Y-40767000D03*
%TD*%
D22*
%TO.P,U2,1,SDO*%
%TO.N,GND*%
X89163000Y-43689000D03*
%TO.P,U2,2,SDX*%
%TO.N,I2C_SDA*%
X89163000Y-43189000D03*
%TO.P,U2,3,VDDIO*%
%TO.N,VCC*%
X89163000Y-42689000D03*
%TO.P,U2,4*%
%TO.N,N/C*%
X89163000Y-42189000D03*
D23*
%TO.P,U2,5,INT1*%
%TO.N,unconnected-(U2-INT1-Pad5)*%
X88638000Y-42164000D03*
%TO.P,U2,6,INT2*%
%TO.N,unconnected-(U2-INT2-Pad6)*%
X88138000Y-42164000D03*
D22*
%TO.P,U2,7,VDD*%
%TO.N,VCC*%
X87613000Y-42189000D03*
%TO.P,U2,8,GNDIO*%
%TO.N,GND*%
X87613000Y-42689000D03*
%TO.P,U2,9,GND*%
X87613000Y-43189000D03*
%TO.P,U2,10,~{CSB}*%
%TO.N,VCC*%
X87613000Y-43689000D03*
D23*
%TO.P,U2,11*%
%TO.N,N/C*%
X88138000Y-43714000D03*
%TO.P,U2,12,SCX*%
%TO.N,I2C_SCL*%
X88638000Y-43714000D03*
%TD*%
D17*
%TO.P,C2,1*%
%TO.N,VCC*%
X81788000Y-51155600D03*
%TO.P,C2,2*%
%TO.N,GND*%
X81788000Y-48030600D03*
%TD*%
D11*
%TO.P,J5,1,Pin_1*%
%TO.N,I2C_SDA*%
X99695000Y-32258000D03*
%TD*%
D12*
%TO.P,R3,1*%
%TO.N,I2C_SCL*%
X95246000Y-46101000D03*
%TO.P,R3,2*%
X98171000Y-46101000D03*
%TD*%
D11*
%TO.P,J4,1,Pin_1*%
%TO.N,I2C_SCL*%
X101854000Y-46990000D03*
%TD*%
D24*
%TO.P,U1,1,XO_N*%
%TO.N,XO_N*%
X95454600Y-38121800D03*
%TO.P,U1,2,XO_P*%
%TO.N,XO_P*%
X95454600Y-38521800D03*
%TO.P,U1,3,MGPIO7*%
%TO.N,unconnected-(U1-MGPIO7-Pad3)*%
X95454600Y-38921800D03*
%TO.P,U1,4,MGPIO6*%
%TO.N,unconnected-(U1-MGPIO6-Pad4)*%
X95454600Y-39321800D03*
%TO.P,U1,5,MGPIO5*%
%TO.N,unconnected-(U1-MGPIO5-Pad5)*%
X95454600Y-39721800D03*
%TO.P,U1,6,SW0*%
%TO.N,VCC*%
X95454600Y-40121800D03*
%TO.P,U1,7,SW1*%
%TO.N,GND*%
X95454600Y-40521800D03*
D25*
%TO.P,U1,8,RX/GPIO0*%
%TO.N,UART_RX*%
X96629600Y-40741800D03*
%TO.P,U1,9,TX/GPIO1*%
%TO.N,UART_TX*%
X97129600Y-40746800D03*
D24*
%TO.P,U1,10,GPIO2*%
%TO.N,I2C_SCL*%
X98304600Y-40521800D03*
%TO.P,U1,11,GPIO3*%
%TO.N,I2C_SDA*%
X98304600Y-40121800D03*
%TO.P,U1,12,MGPIO4*%
%TO.N,unconnected-(U1-MGPIO4-Pad12)*%
X98304600Y-39721800D03*
%TO.P,U1,13,VDDQ*%
%TO.N,VCC*%
X98304600Y-39321800D03*
%TO.P,U1,14,RTC_P*%
%TO.N,unconnected-(U1-RTC_P-Pad14)*%
X98304600Y-38921800D03*
%TO.P,U1,15,RTC_N*%
%TO.N,unconnected-(U1-RTC_N-Pad15)*%
X98304600Y-38521800D03*
%TO.P,U1,16,RF_TX*%
%TO.N,RF_TX*%
X98304600Y-38121800D03*
D25*
%TO.P,U1,17,VCC*%
%TO.N,VCC*%
X97129600Y-37896800D03*
%TO.P,U1,18,EN*%
%TO.N,Net-(U1-EN)*%
X96629600Y-37896800D03*
D26*
%TO.P,U1,19,GND*%
%TO.N,GND*%
X96879600Y-39321800D03*
%TD*%
D27*
%TO.P,C3,1*%
%TO.N,Net-(U1-EN)*%
X88723000Y-28448000D03*
%TO.P,C3,2*%
%TO.N,GND*%
X85598000Y-28448000D03*
%TD*%
D12*
%TO.P,R11,1*%
%TO.N,VCC*%
X98929000Y-28321000D03*
%TO.P,R11,2*%
%TO.N,I2C_SDA*%
X101854000Y-28321000D03*
%TD*%
D28*
%TO.N,GND*%
X90946000Y-37352000D02*
X91440000Y-37352000D01*
X88646000Y-35052000D02*
X90946000Y-37352000D01*
X88540000Y-35052000D02*
X88646000Y-35052000D01*
D29*
%TO.N,I2C_SDA*%
X103366000Y-39636000D02*
X102616000Y-40386000D01*
X103366000Y-34153600D02*
X103366000Y-39636000D01*
X103936800Y-33582800D02*
X103366000Y-34153600D01*
%TO.N,I2C_SCL*%
X105537000Y-29849000D02*
X104013000Y-28325000D01*
X103817000Y-36137000D02*
X105537000Y-34417000D01*
X105537000Y-34417000D02*
X105537000Y-29849000D01*
X103817000Y-41735900D02*
X103817000Y-36137000D01*
X103251000Y-42301900D02*
X103817000Y-41735900D01*
X103251000Y-42301900D02*
X100048700Y-42301900D01*
X100048700Y-42301900D02*
X98304600Y-40557800D01*
X104080190Y-42301900D02*
X103251000Y-42301900D01*
X104267000Y-42488710D02*
X104080190Y-42301900D01*
X104267000Y-44577000D02*
X104267000Y-42488710D01*
X101854000Y-46990000D02*
X104267000Y-44577000D01*
D28*
%TO.N,RF_TX*%
X98784200Y-38121800D02*
X98304600Y-38121800D01*
X99060000Y-37846000D02*
X98784200Y-38121800D01*
X102358000Y-37846000D02*
X99060000Y-37846000D01*
D29*
%TO.N,VCC*%
X79883000Y-49250600D02*
X81788000Y-51155600D01*
X79883000Y-45085000D02*
X79883000Y-49250600D01*
X81661000Y-43307000D02*
X79883000Y-45085000D01*
D28*
%TO.N,XO_P*%
X94701200Y-38521800D02*
X94234000Y-38989000D01*
X95454600Y-38521800D02*
X94701200Y-38521800D01*
D29*
X90177000Y-38989000D02*
X94234000Y-38989000D01*
X88540000Y-37352000D02*
X90177000Y-38989000D01*
%TO.N,VCC*%
X91804000Y-42689000D02*
X94371200Y-40121800D01*
X91186000Y-42689000D02*
X91804000Y-42689000D01*
X89163000Y-42689000D02*
X91186000Y-42689000D01*
D28*
%TO.N,XO_P*%
X95454600Y-38521800D02*
X95448400Y-38528000D01*
D29*
%TO.N,XO_N*%
X92420800Y-35052000D02*
X95454600Y-38085800D01*
X91440000Y-35052000D02*
X92420800Y-35052000D01*
X89408000Y-33020000D02*
X91440000Y-35052000D01*
X86106000Y-33020000D02*
X89408000Y-33020000D01*
X83693000Y-35433000D02*
X86106000Y-33020000D01*
%TO.N,VCC*%
X101850000Y-25400000D02*
X104013000Y-25400000D01*
X98929000Y-28321000D02*
X101850000Y-25400000D01*
%TO.N,I2C_SCL*%
X99060000Y-46990000D02*
X101854000Y-46990000D01*
X98171000Y-46101000D02*
X99060000Y-46990000D01*
%TO.N,GND*%
X104922000Y-49103600D02*
X102616000Y-51409600D01*
X104922000Y-42505900D02*
X104922000Y-49103600D01*
X104267000Y-41850900D02*
X104922000Y-42505900D01*
X104920986Y-35814000D02*
X104267000Y-36467986D01*
X104267000Y-36467986D02*
X104267000Y-41850900D01*
X106807000Y-35814000D02*
X104920986Y-35814000D01*
D28*
%TO.N,RF_TX*%
X102082200Y-38121800D02*
X102358000Y-37846000D01*
D29*
X105351000Y-37914000D02*
X105283000Y-37846000D01*
X106807000Y-37914000D02*
X105351000Y-37914000D01*
%TO.N,VCC*%
X98649600Y-36318000D02*
X97129600Y-34798000D01*
X100203000Y-36318000D02*
X98649600Y-36318000D01*
%TO.N,I2C_SDA*%
X101854000Y-28575000D02*
X101854000Y-28321000D01*
X103936800Y-30657800D02*
X101854000Y-28575000D01*
D28*
X98179000Y-43311000D02*
X98175000Y-43307000D01*
X102616000Y-43311000D02*
X98179000Y-43311000D01*
X102351800Y-40121800D02*
X102616000Y-40386000D01*
X98304600Y-40121800D02*
X102351800Y-40121800D01*
%TO.N,VCC*%
X99743200Y-39321800D02*
X100203000Y-38862000D01*
X98304600Y-39321800D02*
X99743200Y-39321800D01*
D29*
X97129600Y-34798000D02*
X97129600Y-30274400D01*
X85344000Y-40894000D02*
X82931000Y-43307000D01*
X82931000Y-43307000D02*
X81661000Y-43307000D01*
X85852000Y-40894000D02*
X85344000Y-40894000D01*
%TO.N,GND*%
X84709000Y-28448000D02*
X85598000Y-28448000D01*
X82296000Y-30861000D02*
X84709000Y-28448000D01*
%TO.N,VCC*%
X80772000Y-29210000D02*
X84074000Y-25908000D01*
X84074000Y-25908000D02*
X92763200Y-25908000D01*
X85852000Y-40894000D02*
X84709000Y-40894000D01*
X80772000Y-36957000D02*
X80772000Y-29210000D01*
X85852000Y-40894000D02*
X88392000Y-40894000D01*
X84709000Y-40894000D02*
X80772000Y-36957000D01*
X92763200Y-25908000D02*
X95227000Y-28371800D01*
%TO.N,GND*%
X87441500Y-42860500D02*
X87613000Y-42689000D01*
X85598000Y-42860500D02*
X87441500Y-42860500D01*
%TO.N,VCC*%
X83566000Y-43307000D02*
X81661000Y-43307000D01*
X84459000Y-44200000D02*
X83566000Y-43307000D01*
%TO.N,GND*%
X87613000Y-42689000D02*
X87613000Y-43189000D01*
X90051000Y-44577000D02*
X96138500Y-44577000D01*
X89163000Y-43689000D02*
X90051000Y-44577000D01*
X96138500Y-44577000D02*
X96138500Y-41205700D01*
D28*
X95851160Y-40521800D02*
X96879600Y-39493360D01*
X96879600Y-39493360D02*
X96879600Y-39321800D01*
X95454600Y-40521800D02*
X95851160Y-40521800D01*
D29*
X96138500Y-41205700D02*
X95490600Y-40557800D01*
X96138500Y-46967514D02*
X96138500Y-44577000D01*
X95100014Y-48006000D02*
X96138500Y-46967514D01*
X85598000Y-48006000D02*
X95100014Y-48006000D01*
%TO.N,I2C_SDA*%
X101854000Y-30099000D02*
X99695000Y-32258000D01*
X101854000Y-28321000D02*
X101854000Y-30099000D01*
%TO.N,VCC*%
X95227000Y-28371800D02*
X98878200Y-28371800D01*
X98878200Y-28371800D02*
X98929000Y-28321000D01*
%TO.N,I2C_SDA*%
X95132000Y-43189000D02*
X89163000Y-43189000D01*
X95250000Y-43307000D02*
X95132000Y-43189000D01*
%TO.N,VCC*%
X88074500Y-41211500D02*
X88392000Y-40894000D01*
%TO.N,GND*%
X85573400Y-48030600D02*
X85598000Y-48006000D01*
%TO.N,VCC*%
X94717400Y-51131000D02*
X94996000Y-51409600D01*
X85598000Y-51131000D02*
X94717400Y-51131000D01*
X81788000Y-51155600D02*
X85573400Y-51155600D01*
X85573400Y-51155600D02*
X85598000Y-51131000D01*
D28*
%TO.N,GND*%
X88990000Y-35052000D02*
X88540000Y-35052000D01*
D29*
X81654800Y-48163800D02*
X81788000Y-48030600D01*
%TO.N,VCC*%
X88392000Y-40894000D02*
X89391000Y-40894000D01*
X97129600Y-30274400D02*
X95227000Y-28371800D01*
X87613000Y-42189000D02*
X87613000Y-41673000D01*
X97129600Y-37896800D02*
X97129600Y-34798000D01*
X87613000Y-41673000D02*
X88074500Y-41211500D01*
X89391000Y-40894000D02*
X91186000Y-42689000D01*
D28*
X95454600Y-40121800D02*
X94371200Y-40121800D01*
D29*
%TO.N,Net-(U1-EN)*%
X92151200Y-28371800D02*
X92075000Y-28448000D01*
X92302000Y-28371800D02*
X92151200Y-28371800D01*
X92075000Y-28448000D02*
X88723000Y-28448000D01*
X96629600Y-37896800D02*
X96629600Y-32699400D01*
X96629600Y-32699400D02*
X92302000Y-28371800D01*
%TO.N,UART_TX*%
X97129600Y-48463200D02*
X100076000Y-51409600D01*
X97129600Y-40746800D02*
X97129600Y-48463200D01*
%TO.N,UART_RX*%
X96629600Y-40741800D02*
X96629600Y-50503200D01*
X96629600Y-50503200D02*
X97536000Y-51409600D01*
%TO.N,I2C_SCL*%
X88638000Y-43714000D02*
X88638000Y-44141000D01*
X88638000Y-44141000D02*
X90598000Y-46101000D01*
X90598000Y-46101000D02*
X95246000Y-46101000D01*
%TO.N,VCC*%
X87102000Y-44200000D02*
X84459000Y-44200000D01*
X87102000Y-44200000D02*
X87613000Y-43689000D01*
%TO.N,GND*%
X88540000Y-35052000D02*
X87630000Y-35052000D01*
D28*
X88540000Y-35052000D02*
X88690000Y-35052000D01*
%TD*%
%TA.AperFunction,Conductor*%
%TO.N,GND*%
G36*
X102742073Y-24387319D02*
G01*
X102753796Y-24386157D01*
X102774981Y-24396982D01*
X102797809Y-24403685D01*
X102805523Y-24412587D01*
X102816014Y-24417948D01*
X102827985Y-24438509D01*
X102843564Y-24456489D01*
X102845240Y-24468148D01*
X102851168Y-24478330D01*
X102850121Y-24502097D01*
X102853508Y-24525647D01*
X102848613Y-24536363D01*
X102848096Y-24548132D01*
X102832037Y-24579561D01*
X102825932Y-24588199D01*
X102795288Y-24618844D01*
X102733577Y-24718893D01*
X102731339Y-24722061D01*
X102706871Y-24741446D01*
X102683663Y-24762321D01*
X102679712Y-24762963D01*
X102676575Y-24765450D01*
X102630072Y-24774500D01*
X101788389Y-24774500D01*
X101737535Y-24784615D01*
X101737530Y-24784616D01*
X101727971Y-24786518D01*
X101667548Y-24798537D01*
X101620397Y-24818067D01*
X101553715Y-24845688D01*
X101553714Y-24845689D01*
X101531347Y-24860633D01*
X101531344Y-24860635D01*
X101451268Y-24914140D01*
X101407705Y-24957703D01*
X101364142Y-25001267D01*
X101364139Y-25001270D01*
X99449672Y-26915736D01*
X99388349Y-26949221D01*
X99349388Y-26951413D01*
X99291510Y-26945500D01*
X98566498Y-26945500D01*
X98566480Y-26945501D01*
X98463703Y-26956000D01*
X98463700Y-26956001D01*
X98297168Y-27011185D01*
X98297163Y-27011187D01*
X98147842Y-27103289D01*
X98023789Y-27227342D01*
X97931687Y-27376663D01*
X97931685Y-27376668D01*
X97914852Y-27427468D01*
X97897887Y-27478666D01*
X97876501Y-27543204D01*
X97876500Y-27543205D01*
X97867133Y-27634902D01*
X97840737Y-27699594D01*
X97783556Y-27739745D01*
X97743775Y-27746300D01*
X96407035Y-27746300D01*
X96339996Y-27726615D01*
X96294241Y-27673811D01*
X96283677Y-27634902D01*
X96282840Y-27626712D01*
X96279499Y-27594003D01*
X96224314Y-27427466D01*
X96132212Y-27278144D01*
X96008156Y-27154088D01*
X95858834Y-27061986D01*
X95692297Y-27006801D01*
X95692295Y-27006800D01*
X95589510Y-26996300D01*
X94864498Y-26996300D01*
X94864477Y-26996302D01*
X94806607Y-27002213D01*
X94737914Y-26989442D01*
X94706326Y-26966536D01*
X93259022Y-25519232D01*
X93249059Y-25509269D01*
X93249058Y-25509267D01*
X93161933Y-25422142D01*
X93110709Y-25387915D01*
X93059486Y-25353688D01*
X93059483Y-25353686D01*
X93059480Y-25353685D01*
X92985803Y-25323168D01*
X92985801Y-25323167D01*
X92978992Y-25320347D01*
X92945652Y-25306537D01*
X92885229Y-25294518D01*
X92880506Y-25293578D01*
X92880504Y-25293578D01*
X92824810Y-25282500D01*
X92824807Y-25282500D01*
X92824806Y-25282500D01*
X84135607Y-25282500D01*
X84012393Y-25282500D01*
X84012389Y-25282500D01*
X83956697Y-25293578D01*
X83951971Y-25294518D01*
X83908743Y-25303116D01*
X83891546Y-25306537D01*
X83777716Y-25353687D01*
X83777707Y-25353692D01*
X83675268Y-25422140D01*
X83631705Y-25465703D01*
X83588142Y-25509267D01*
X80286144Y-28811264D01*
X80286138Y-28811272D01*
X80251914Y-28862489D01*
X80251915Y-28862490D01*
X80217691Y-28913708D01*
X80217689Y-28913712D01*
X80217688Y-28913714D01*
X80193023Y-28973263D01*
X80170537Y-29027548D01*
X80161397Y-29073500D01*
X80146577Y-29148009D01*
X80146500Y-29148394D01*
X80146500Y-29149376D01*
X80146500Y-29427598D01*
X80126815Y-29494637D01*
X80074011Y-29540392D01*
X80004853Y-29550336D01*
X79983497Y-29545304D01*
X79836200Y-29496495D01*
X79836190Y-29496493D01*
X79733486Y-29486000D01*
X79621000Y-29486000D01*
X79621000Y-32235999D01*
X79733472Y-32235999D01*
X79733486Y-32235998D01*
X79836195Y-32225506D01*
X79983495Y-32176695D01*
X80053324Y-32174293D01*
X80113366Y-32210024D01*
X80144559Y-32272545D01*
X80146500Y-32294401D01*
X80146500Y-37018609D01*
X80170100Y-37137258D01*
X80170102Y-37137267D01*
X80170537Y-37139451D01*
X80217688Y-37253286D01*
X80242483Y-37290393D01*
X80286142Y-37355733D01*
X80373267Y-37442858D01*
X80373270Y-37442860D01*
X80380976Y-37450566D01*
X82209652Y-39279242D01*
X82243137Y-39340565D01*
X82238153Y-39410257D01*
X82196281Y-39466190D01*
X82130817Y-39490607D01*
X82083654Y-39484854D01*
X81977125Y-39450241D01*
X81911000Y-39439768D01*
X81911000Y-40333988D01*
X81853993Y-40301075D01*
X81726826Y-40267000D01*
X81595174Y-40267000D01*
X81468007Y-40301075D01*
X81411000Y-40333988D01*
X81411000Y-39439768D01*
X81410999Y-39439768D01*
X81344875Y-39450241D01*
X81142784Y-39515903D01*
X80953442Y-39612379D01*
X80781540Y-39737272D01*
X80781535Y-39737276D01*
X80631276Y-39887535D01*
X80631272Y-39887540D01*
X80506379Y-40059442D01*
X80409904Y-40248782D01*
X80344242Y-40450870D01*
X80344242Y-40450873D01*
X80333769Y-40517000D01*
X81227988Y-40517000D01*
X81195075Y-40574007D01*
X81161000Y-40701174D01*
X81161000Y-40832826D01*
X81195075Y-40959993D01*
X81227988Y-41017000D01*
X80333769Y-41017000D01*
X80344242Y-41083126D01*
X80344242Y-41083129D01*
X80409904Y-41285217D01*
X80506379Y-41474557D01*
X80631272Y-41646459D01*
X80631276Y-41646464D01*
X80744946Y-41760134D01*
X80778431Y-41821457D01*
X80773447Y-41891149D01*
X80731575Y-41947082D01*
X80700598Y-41963997D01*
X80568671Y-42013202D01*
X80568664Y-42013206D01*
X80453455Y-42099452D01*
X80453452Y-42099455D01*
X80367206Y-42214664D01*
X80367202Y-42214671D01*
X80316908Y-42349517D01*
X80310501Y-42409116D01*
X80310500Y-42409135D01*
X80310500Y-43721546D01*
X80290815Y-43788585D01*
X80274180Y-43809227D01*
X79484269Y-44599140D01*
X79484267Y-44599142D01*
X79457630Y-44625779D01*
X79397142Y-44686266D01*
X79374511Y-44720135D01*
X79374505Y-44720144D01*
X79370927Y-44725501D01*
X79328688Y-44788714D01*
X79295347Y-44869207D01*
X79289558Y-44883181D01*
X79281537Y-44902545D01*
X79281535Y-44902553D01*
X79257500Y-45023389D01*
X79257500Y-49312211D01*
X79281535Y-49433044D01*
X79281540Y-49433061D01*
X79328685Y-49546880D01*
X79328687Y-49546883D01*
X79328688Y-49546886D01*
X79362915Y-49598109D01*
X79397142Y-49649333D01*
X79484267Y-49736458D01*
X79484270Y-49736460D01*
X79491554Y-49743744D01*
X80351181Y-50603371D01*
X80384666Y-50664694D01*
X80387500Y-50691052D01*
X80387500Y-51618101D01*
X80387501Y-51618119D01*
X80398000Y-51720896D01*
X80398001Y-51720899D01*
X80453185Y-51887431D01*
X80453187Y-51887436D01*
X80488069Y-51943988D01*
X80545288Y-52036756D01*
X80669344Y-52160812D01*
X80818666Y-52252914D01*
X80985203Y-52308099D01*
X81087991Y-52318600D01*
X82488008Y-52318599D01*
X82590797Y-52308099D01*
X82757334Y-52252914D01*
X82906656Y-52160812D01*
X83030712Y-52036756D01*
X83122814Y-51887434D01*
X83125112Y-51880500D01*
X83129886Y-51866094D01*
X83169659Y-51808650D01*
X83234175Y-51781828D01*
X83247591Y-51781100D01*
X84146561Y-51781100D01*
X84213600Y-51800785D01*
X84259355Y-51853589D01*
X84261914Y-51860106D01*
X84263187Y-51862836D01*
X84284967Y-51898147D01*
X84355288Y-52012156D01*
X84479344Y-52136212D01*
X84628666Y-52228314D01*
X84795203Y-52283499D01*
X84897991Y-52294000D01*
X86298008Y-52293999D01*
X86400797Y-52283499D01*
X86567334Y-52228314D01*
X86716656Y-52136212D01*
X86840712Y-52012156D01*
X86932814Y-51862834D01*
X86935878Y-51853589D01*
X86939886Y-51841494D01*
X86979659Y-51784050D01*
X87044175Y-51757228D01*
X87057591Y-51756500D01*
X88062977Y-51756500D01*
X88130016Y-51776185D01*
X88175771Y-51828989D01*
X88185715Y-51898147D01*
X88156690Y-51961703D01*
X88150658Y-51968181D01*
X88063684Y-52055154D01*
X87971643Y-52204375D01*
X87971641Y-52204380D01*
X87916494Y-52370802D01*
X87916493Y-52370809D01*
X87906000Y-52473513D01*
X87906000Y-52586000D01*
X90655999Y-52586000D01*
X90655999Y-52473528D01*
X90655998Y-52473513D01*
X90645505Y-52370802D01*
X90590358Y-52204380D01*
X90590356Y-52204375D01*
X90498315Y-52055154D01*
X90411342Y-51968181D01*
X90377857Y-51906858D01*
X90382841Y-51837166D01*
X90424713Y-51781233D01*
X90490177Y-51756816D01*
X90499023Y-51756500D01*
X93521501Y-51756500D01*
X93588540Y-51776185D01*
X93634295Y-51828989D01*
X93645501Y-51880500D01*
X93645501Y-52307476D01*
X93651908Y-52367083D01*
X93702202Y-52501928D01*
X93702206Y-52501935D01*
X93788452Y-52617144D01*
X93788455Y-52617147D01*
X93903664Y-52703393D01*
X93903671Y-52703397D01*
X94038517Y-52753691D01*
X94038516Y-52753691D01*
X94045444Y-52754435D01*
X94098127Y-52760100D01*
X95893872Y-52760099D01*
X95953483Y-52753691D01*
X96088331Y-52703396D01*
X96203546Y-52617146D01*
X96289796Y-52501931D01*
X96338810Y-52370516D01*
X96380681Y-52314584D01*
X96446145Y-52290166D01*
X96514418Y-52305017D01*
X96542673Y-52326169D01*
X96656213Y-52439709D01*
X96828179Y-52564648D01*
X96828181Y-52564649D01*
X96828184Y-52564651D01*
X97017588Y-52661157D01*
X97219757Y-52726846D01*
X97429713Y-52760100D01*
X97429714Y-52760100D01*
X97642286Y-52760100D01*
X97642287Y-52760100D01*
X97852243Y-52726846D01*
X98054412Y-52661157D01*
X98243816Y-52564651D01*
X98330138Y-52501935D01*
X98415786Y-52439709D01*
X98415788Y-52439706D01*
X98415792Y-52439704D01*
X98566104Y-52289392D01*
X98566106Y-52289388D01*
X98566109Y-52289386D01*
X98691048Y-52117420D01*
X98691047Y-52117420D01*
X98691051Y-52117416D01*
X98695514Y-52108654D01*
X98743488Y-52057859D01*
X98811308Y-52041063D01*
X98877444Y-52063599D01*
X98916486Y-52108656D01*
X98920951Y-52117420D01*
X99045890Y-52289386D01*
X99196213Y-52439709D01*
X99368179Y-52564648D01*
X99368181Y-52564649D01*
X99368184Y-52564651D01*
X99557588Y-52661157D01*
X99759757Y-52726846D01*
X99969713Y-52760100D01*
X99969714Y-52760100D01*
X100182286Y-52760100D01*
X100182287Y-52760100D01*
X100392243Y-52726846D01*
X100594412Y-52661157D01*
X100783816Y-52564651D01*
X100870138Y-52501935D01*
X100955786Y-52439709D01*
X100955788Y-52439706D01*
X100955792Y-52439704D01*
X101106104Y-52289392D01*
X101106106Y-52289388D01*
X101106109Y-52289386D01*
X101199522Y-52160812D01*
X101231051Y-52117416D01*
X101235793Y-52108108D01*
X101283763Y-52057311D01*
X101351583Y-52040511D01*
X101417719Y-52063045D01*
X101456763Y-52108100D01*
X101461377Y-52117155D01*
X101586272Y-52289059D01*
X101586276Y-52289064D01*
X101736535Y-52439323D01*
X101736540Y-52439327D01*
X101908442Y-52564220D01*
X102097782Y-52660695D01*
X102299871Y-52726357D01*
X102366000Y-52736831D01*
X102366000Y-51842612D01*
X102423007Y-51875525D01*
X102550174Y-51909600D01*
X102681826Y-51909600D01*
X102808993Y-51875525D01*
X102866000Y-51842612D01*
X102866000Y-52736830D01*
X102932126Y-52726357D01*
X102932129Y-52726357D01*
X103134217Y-52660695D01*
X103323557Y-52564220D01*
X103495459Y-52439327D01*
X103495464Y-52439323D01*
X103645723Y-52289064D01*
X103645727Y-52289059D01*
X103770620Y-52117157D01*
X103867095Y-51927817D01*
X103932757Y-51725729D01*
X103932757Y-51725726D01*
X103943231Y-51659600D01*
X103049012Y-51659600D01*
X103081925Y-51602593D01*
X103116000Y-51475426D01*
X103116000Y-51343774D01*
X103081925Y-51216607D01*
X103049012Y-51159600D01*
X103943231Y-51159600D01*
X103932757Y-51093473D01*
X103932757Y-51093470D01*
X103867095Y-50891382D01*
X103770620Y-50702042D01*
X103645727Y-50530140D01*
X103645723Y-50530135D01*
X103495464Y-50379876D01*
X103495459Y-50379872D01*
X103323557Y-50254979D01*
X103134215Y-50158503D01*
X102932124Y-50092841D01*
X102866000Y-50082368D01*
X102866000Y-50976588D01*
X102808993Y-50943675D01*
X102681826Y-50909600D01*
X102550174Y-50909600D01*
X102423007Y-50943675D01*
X102366000Y-50976588D01*
X102366000Y-50082368D01*
X102365999Y-50082368D01*
X102299875Y-50092841D01*
X102097784Y-50158503D01*
X101908442Y-50254979D01*
X101736540Y-50379872D01*
X101736535Y-50379876D01*
X101586276Y-50530135D01*
X101586272Y-50530140D01*
X101461378Y-50702043D01*
X101456762Y-50711102D01*
X101408784Y-50761895D01*
X101340963Y-50778687D01*
X101274829Y-50756146D01*
X101235794Y-50711093D01*
X101231051Y-50701784D01*
X101231049Y-50701781D01*
X101231048Y-50701779D01*
X101106109Y-50529813D01*
X100955786Y-50379490D01*
X100783820Y-50254551D01*
X100594414Y-50158044D01*
X100594413Y-50158043D01*
X100594412Y-50158043D01*
X100392243Y-50092354D01*
X100392241Y-50092353D01*
X100392240Y-50092353D01*
X100230957Y-50066808D01*
X100182287Y-50059100D01*
X99969713Y-50059100D01*
X99941006Y-50063646D01*
X99759757Y-50092353D01*
X99744158Y-50097422D01*
X99674317Y-50099416D01*
X99618161Y-50067171D01*
X97791419Y-48240429D01*
X97757934Y-48179106D01*
X97755100Y-48152748D01*
X97755100Y-47600499D01*
X97774785Y-47533460D01*
X97827589Y-47487705D01*
X97879095Y-47476499D01*
X98533508Y-47476499D01*
X98600767Y-47469628D01*
X98625385Y-47474204D01*
X98650420Y-47474651D01*
X98664800Y-47481531D01*
X98669459Y-47482397D01*
X98682250Y-47489878D01*
X98738190Y-47527256D01*
X98763710Y-47544309D01*
X98763712Y-47544310D01*
X98763715Y-47544312D01*
X98830396Y-47571931D01*
X98830398Y-47571933D01*
X98870640Y-47588601D01*
X98877548Y-47591463D01*
X98937971Y-47603481D01*
X98998393Y-47615500D01*
X98998394Y-47615500D01*
X99864911Y-47615500D01*
X99931950Y-47635185D01*
X99977705Y-47687989D01*
X99979472Y-47692047D01*
X100055953Y-47876690D01*
X100055958Y-47876700D01*
X100187075Y-48103803D01*
X100346718Y-48311851D01*
X100346726Y-48311860D01*
X100532140Y-48497274D01*
X100532148Y-48497281D01*
X100740196Y-48656924D01*
X100967299Y-48788041D01*
X100967309Y-48788046D01*
X101209571Y-48888394D01*
X101209581Y-48888398D01*
X101462884Y-48956270D01*
X101722880Y-48990500D01*
X101722887Y-48990500D01*
X101985113Y-48990500D01*
X101985120Y-48990500D01*
X102245116Y-48956270D01*
X102498419Y-48888398D01*
X102740697Y-48788043D01*
X102967803Y-48656924D01*
X103175851Y-48497282D01*
X103175855Y-48497277D01*
X103175860Y-48497274D01*
X103361274Y-48311860D01*
X103361277Y-48311855D01*
X103361282Y-48311851D01*
X103520924Y-48103803D01*
X103652043Y-47876697D01*
X103752398Y-47634419D01*
X103820270Y-47381116D01*
X103854500Y-47121120D01*
X103854500Y-46858880D01*
X103820270Y-46598884D01*
X103752398Y-46345581D01*
X103675911Y-46160926D01*
X103668443Y-46091461D01*
X103699718Y-46028982D01*
X103702761Y-46025827D01*
X104348101Y-45380488D01*
X104409422Y-45347005D01*
X104479114Y-45351989D01*
X104535047Y-45393861D01*
X104559464Y-45459325D01*
X104559779Y-45468690D01*
X104540412Y-50097422D01*
X104524509Y-53898499D01*
X104523111Y-54232519D01*
X104503146Y-54299475D01*
X104450151Y-54345009D01*
X104399112Y-54356000D01*
X77086000Y-54356000D01*
X77018961Y-54336315D01*
X76973206Y-54283511D01*
X76962000Y-54232000D01*
X76962000Y-53198486D01*
X87906001Y-53198486D01*
X87916494Y-53301197D01*
X87971641Y-53467619D01*
X87971643Y-53467624D01*
X88063684Y-53616845D01*
X88187654Y-53740815D01*
X88336875Y-53832856D01*
X88336880Y-53832858D01*
X88503302Y-53888005D01*
X88503309Y-53888006D01*
X88606019Y-53898499D01*
X89030999Y-53898499D01*
X89531000Y-53898499D01*
X89955972Y-53898499D01*
X89955986Y-53898498D01*
X90058697Y-53888005D01*
X90225119Y-53832858D01*
X90225124Y-53832856D01*
X90374345Y-53740815D01*
X90498315Y-53616845D01*
X90590356Y-53467624D01*
X90590358Y-53467619D01*
X90645505Y-53301197D01*
X90645506Y-53301190D01*
X90655999Y-53198486D01*
X90656000Y-53198473D01*
X90656000Y-53086000D01*
X89531000Y-53086000D01*
X89531000Y-53898499D01*
X89030999Y-53898499D01*
X89031000Y-53898498D01*
X89031000Y-53086000D01*
X87906001Y-53086000D01*
X87906001Y-53198486D01*
X76962000Y-53198486D01*
X76962000Y-31535986D01*
X78308501Y-31535986D01*
X78318994Y-31638697D01*
X78374141Y-31805119D01*
X78374143Y-31805124D01*
X78466184Y-31954345D01*
X78590154Y-32078315D01*
X78739375Y-32170356D01*
X78739380Y-32170358D01*
X78905802Y-32225505D01*
X78905809Y-32225506D01*
X79008519Y-32235999D01*
X79120999Y-32235999D01*
X79121000Y-32235998D01*
X79121000Y-31111000D01*
X78308501Y-31111000D01*
X78308501Y-31535986D01*
X76962000Y-31535986D01*
X76962000Y-30186013D01*
X78308500Y-30186013D01*
X78308500Y-30611000D01*
X79121000Y-30611000D01*
X79121000Y-29486000D01*
X79008527Y-29486000D01*
X79008512Y-29486001D01*
X78905802Y-29496494D01*
X78739380Y-29551641D01*
X78739375Y-29551643D01*
X78590154Y-29643684D01*
X78466184Y-29767654D01*
X78374143Y-29916875D01*
X78374141Y-29916880D01*
X78318994Y-30083302D01*
X78318993Y-30083309D01*
X78308500Y-30186013D01*
X76962000Y-30186013D01*
X76962000Y-24508000D01*
X76981685Y-24440961D01*
X77034489Y-24395206D01*
X77086000Y-24384000D01*
X102730770Y-24384000D01*
X102742073Y-24387319D01*
G37*
%TD.AperFunction*%
%TA.AperFunction,Conductor*%
G36*
X83322587Y-43952185D02*
G01*
X83343229Y-43968819D01*
X84060263Y-44685855D01*
X84060267Y-44685858D01*
X84162710Y-44754309D01*
X84162711Y-44754309D01*
X84162715Y-44754312D01*
X84229397Y-44781932D01*
X84276548Y-44801463D01*
X84313711Y-44808855D01*
X84320621Y-44811095D01*
X84343712Y-44826862D01*
X84368482Y-44839818D01*
X84372168Y-44846291D01*
X84378323Y-44850494D01*
X84389223Y-44876240D01*
X84403058Y-44900533D01*
X84402659Y-44907973D01*
X84405564Y-44914834D01*
X84400815Y-44942381D01*
X84399320Y-44970302D01*
X84394495Y-44979049D01*
X84393696Y-44983689D01*
X84389279Y-44988507D01*
X84383944Y-44998181D01*
X84384475Y-44998509D01*
X84288643Y-45153875D01*
X84288641Y-45153880D01*
X84233494Y-45320302D01*
X84233493Y-45320309D01*
X84223000Y-45423013D01*
X84223000Y-45535500D01*
X86972999Y-45535500D01*
X86972999Y-45423028D01*
X86972998Y-45423013D01*
X86962505Y-45320302D01*
X86907358Y-45153880D01*
X86907356Y-45153875D01*
X86821448Y-45014597D01*
X86803008Y-44947205D01*
X86823930Y-44880541D01*
X86877572Y-44835771D01*
X86926987Y-44825500D01*
X87163607Y-44825500D01*
X87224029Y-44813481D01*
X87284452Y-44801463D01*
X87317792Y-44787652D01*
X87398286Y-44754312D01*
X87449509Y-44720084D01*
X87500733Y-44685858D01*
X87587858Y-44598733D01*
X87587859Y-44598731D01*
X87594925Y-44591665D01*
X87594928Y-44591661D01*
X87769322Y-44417266D01*
X87830643Y-44383783D01*
X87865235Y-44381223D01*
X87877739Y-44382055D01*
X87880517Y-44383091D01*
X87940127Y-44389500D01*
X87989603Y-44389499D01*
X87993712Y-44389773D01*
X88022790Y-44400454D01*
X88052515Y-44409182D01*
X88056079Y-44412683D01*
X88059296Y-44413865D01*
X88065113Y-44421556D01*
X88088577Y-44444603D01*
X88114592Y-44483536D01*
X88114593Y-44483538D01*
X88152138Y-44539728D01*
X88152139Y-44539729D01*
X88152142Y-44539733D01*
X88239267Y-44626858D01*
X88239269Y-44626859D01*
X88246335Y-44633925D01*
X88246334Y-44633925D01*
X88246338Y-44633928D01*
X90199263Y-46586855D01*
X90199267Y-46586858D01*
X90301710Y-46655309D01*
X90301711Y-46655309D01*
X90301715Y-46655312D01*
X90368397Y-46682932D01*
X90415548Y-46702463D01*
X90435597Y-46706451D01*
X90500624Y-46719385D01*
X90536392Y-46726501D01*
X90536394Y-46726501D01*
X90665721Y-46726501D01*
X90665741Y-46726500D01*
X94065965Y-46726500D01*
X94133004Y-46746185D01*
X94178759Y-46798989D01*
X94189323Y-46837898D01*
X94193501Y-46878797D01*
X94193501Y-46878799D01*
X94242208Y-47025784D01*
X94248686Y-47045334D01*
X94340788Y-47194656D01*
X94464844Y-47318712D01*
X94614166Y-47410814D01*
X94780703Y-47465999D01*
X94883491Y-47476500D01*
X95608508Y-47476499D01*
X95608516Y-47476498D01*
X95608519Y-47476498D01*
X95675771Y-47469628D01*
X95711297Y-47465999D01*
X95841098Y-47422986D01*
X95910924Y-47420585D01*
X95970966Y-47456316D01*
X96002159Y-47518836D01*
X96004100Y-47540693D01*
X96004100Y-49935100D01*
X95984415Y-50002139D01*
X95931611Y-50047894D01*
X95880100Y-50059100D01*
X94098129Y-50059100D01*
X94098123Y-50059101D01*
X94038516Y-50065508D01*
X93903671Y-50115802D01*
X93903664Y-50115806D01*
X93788455Y-50202052D01*
X93788452Y-50202055D01*
X93702206Y-50317264D01*
X93702202Y-50317271D01*
X93662085Y-50424833D01*
X93620214Y-50480767D01*
X93554750Y-50505184D01*
X93545903Y-50505500D01*
X90769610Y-50505500D01*
X90702571Y-50485815D01*
X90656816Y-50433011D01*
X90646252Y-50368897D01*
X90655999Y-50273486D01*
X90656000Y-50273473D01*
X90656000Y-50161000D01*
X87906001Y-50161000D01*
X87906001Y-50273489D01*
X87915748Y-50368899D01*
X87902978Y-50437592D01*
X87855097Y-50488476D01*
X87792390Y-50505500D01*
X87057591Y-50505500D01*
X86990552Y-50485815D01*
X86944797Y-50433011D01*
X86939886Y-50420506D01*
X86932815Y-50399168D01*
X86920913Y-50379872D01*
X86840712Y-50249844D01*
X86716656Y-50125788D01*
X86567334Y-50033686D01*
X86400797Y-49978501D01*
X86400795Y-49978500D01*
X86298010Y-49968000D01*
X84897998Y-49968000D01*
X84897981Y-49968001D01*
X84795203Y-49978500D01*
X84795200Y-49978501D01*
X84628668Y-50033685D01*
X84628663Y-50033687D01*
X84479342Y-50125789D01*
X84355289Y-50249842D01*
X84263187Y-50399163D01*
X84263185Y-50399168D01*
X84247964Y-50445104D01*
X84208191Y-50502549D01*
X84143675Y-50529372D01*
X84130258Y-50530100D01*
X83247591Y-50530100D01*
X83180552Y-50510415D01*
X83134797Y-50457611D01*
X83129886Y-50445106D01*
X83122815Y-50423768D01*
X83107642Y-50399168D01*
X83030712Y-50274444D01*
X82906656Y-50150388D01*
X82812566Y-50092353D01*
X82757336Y-50058287D01*
X82757331Y-50058285D01*
X82725973Y-50047894D01*
X82590797Y-50003101D01*
X82590795Y-50003100D01*
X82488016Y-49992600D01*
X82488009Y-49992600D01*
X81560952Y-49992600D01*
X81493913Y-49972915D01*
X81473271Y-49956281D01*
X81065503Y-49548513D01*
X87906000Y-49548513D01*
X87906000Y-49661000D01*
X89031000Y-49661000D01*
X89531000Y-49661000D01*
X90655999Y-49661000D01*
X90655999Y-49548528D01*
X90655998Y-49548513D01*
X90645505Y-49445802D01*
X90590358Y-49279380D01*
X90590356Y-49279375D01*
X90498315Y-49130154D01*
X90374345Y-49006184D01*
X90225124Y-48914143D01*
X90225119Y-48914141D01*
X90058697Y-48858994D01*
X90058690Y-48858993D01*
X89955986Y-48848500D01*
X89531000Y-48848500D01*
X89531000Y-49661000D01*
X89031000Y-49661000D01*
X89031000Y-48848500D01*
X88606028Y-48848500D01*
X88606012Y-48848501D01*
X88503302Y-48858994D01*
X88336880Y-48914141D01*
X88336875Y-48914143D01*
X88187654Y-49006184D01*
X88063684Y-49130154D01*
X87971643Y-49279375D01*
X87971641Y-49279380D01*
X87916494Y-49445802D01*
X87916493Y-49445809D01*
X87906000Y-49548513D01*
X81065503Y-49548513D01*
X80913549Y-49396559D01*
X80880064Y-49335236D01*
X80885048Y-49265544D01*
X80926920Y-49209611D01*
X80992384Y-49185194D01*
X81013834Y-49185520D01*
X81088021Y-49193099D01*
X81537999Y-49193099D01*
X82038000Y-49193099D01*
X82487972Y-49193099D01*
X82487986Y-49193098D01*
X82590697Y-49182605D01*
X82757119Y-49127458D01*
X82757124Y-49127456D01*
X82906345Y-49035415D01*
X83030315Y-48911445D01*
X83122356Y-48762224D01*
X83122358Y-48762219D01*
X83177505Y-48595797D01*
X83177506Y-48595790D01*
X83187999Y-48493086D01*
X83188000Y-48493073D01*
X83188000Y-48468486D01*
X84198001Y-48468486D01*
X84208494Y-48571197D01*
X84263641Y-48737619D01*
X84263643Y-48737624D01*
X84355684Y-48886845D01*
X84479654Y-49010815D01*
X84628875Y-49102856D01*
X84628880Y-49102858D01*
X84795302Y-49158005D01*
X84795309Y-49158006D01*
X84898019Y-49168499D01*
X85347999Y-49168499D01*
X85848000Y-49168499D01*
X86297972Y-49168499D01*
X86297986Y-49168498D01*
X86400697Y-49158005D01*
X86567119Y-49102858D01*
X86567124Y-49102856D01*
X86716345Y-49010815D01*
X86840315Y-48886845D01*
X86932356Y-48737624D01*
X86932358Y-48737619D01*
X86987505Y-48571197D01*
X86987506Y-48571190D01*
X86997999Y-48468486D01*
X86998000Y-48468473D01*
X86998000Y-48256000D01*
X85848000Y-48256000D01*
X85848000Y-49168499D01*
X85347999Y-49168499D01*
X85348000Y-49168498D01*
X85348000Y-48256000D01*
X84198001Y-48256000D01*
X84198001Y-48468486D01*
X83188000Y-48468486D01*
X83188000Y-48280600D01*
X82038000Y-48280600D01*
X82038000Y-49193099D01*
X81537999Y-49193099D01*
X81538000Y-49193098D01*
X81538000Y-47780600D01*
X82038000Y-47780600D01*
X83187999Y-47780600D01*
X83187999Y-47568128D01*
X83187998Y-47568110D01*
X83186451Y-47552965D01*
X83185485Y-47543513D01*
X84198000Y-47543513D01*
X84198000Y-47756000D01*
X85348000Y-47756000D01*
X85848000Y-47756000D01*
X86997999Y-47756000D01*
X86997999Y-47543528D01*
X86997998Y-47543513D01*
X86987505Y-47440802D01*
X86932358Y-47274380D01*
X86932356Y-47274375D01*
X86840315Y-47125154D01*
X86716344Y-47001183D01*
X86716340Y-47001180D01*
X86622952Y-46943577D01*
X86576227Y-46891629D01*
X86565006Y-46822666D01*
X86592849Y-46758585D01*
X86622953Y-46732500D01*
X86691343Y-46690317D01*
X86815315Y-46566345D01*
X86907356Y-46417124D01*
X86907358Y-46417119D01*
X86962505Y-46250697D01*
X86962506Y-46250690D01*
X86972999Y-46147986D01*
X86973000Y-46147973D01*
X86973000Y-46035500D01*
X85848000Y-46035500D01*
X85848000Y-47756000D01*
X85348000Y-47756000D01*
X85348000Y-46035500D01*
X84223001Y-46035500D01*
X84223001Y-46147986D01*
X84233494Y-46250697D01*
X84288641Y-46417119D01*
X84288643Y-46417124D01*
X84380684Y-46566345D01*
X84504656Y-46690317D01*
X84573046Y-46732500D01*
X84619771Y-46784448D01*
X84630994Y-46853410D01*
X84603151Y-46917493D01*
X84573048Y-46943577D01*
X84479656Y-47001182D01*
X84355684Y-47125154D01*
X84263643Y-47274375D01*
X84263641Y-47274380D01*
X84208494Y-47440802D01*
X84208493Y-47440809D01*
X84198000Y-47543513D01*
X83185485Y-47543513D01*
X83177505Y-47465402D01*
X83122358Y-47298980D01*
X83122356Y-47298975D01*
X83030315Y-47149754D01*
X82906345Y-47025784D01*
X82757124Y-46933743D01*
X82757119Y-46933741D01*
X82590697Y-46878594D01*
X82590690Y-46878593D01*
X82487986Y-46868100D01*
X82038000Y-46868100D01*
X82038000Y-47780600D01*
X81538000Y-47780600D01*
X81538000Y-46868100D01*
X81088028Y-46868100D01*
X81088012Y-46868101D01*
X80985302Y-46878594D01*
X80818880Y-46933741D01*
X80818875Y-46933743D01*
X80697597Y-47008549D01*
X80630204Y-47026989D01*
X80563541Y-47006066D01*
X80518771Y-46952424D01*
X80508500Y-46903010D01*
X80508500Y-45395451D01*
X80528185Y-45328412D01*
X80544815Y-45307774D01*
X81158771Y-44693817D01*
X81220094Y-44660333D01*
X81246452Y-44657499D01*
X82558871Y-44657499D01*
X82558872Y-44657499D01*
X82618483Y-44651091D01*
X82753331Y-44600796D01*
X82868546Y-44514546D01*
X82954796Y-44399331D01*
X83005091Y-44264483D01*
X83011500Y-44204873D01*
X83011500Y-44056500D01*
X83014050Y-44047814D01*
X83012762Y-44038853D01*
X83023740Y-44014812D01*
X83031185Y-43989461D01*
X83038025Y-43983533D01*
X83041787Y-43975297D01*
X83064021Y-43961007D01*
X83083989Y-43943706D01*
X83094503Y-43941418D01*
X83100565Y-43937523D01*
X83135500Y-43932500D01*
X83255548Y-43932500D01*
X83322587Y-43952185D01*
G37*
%TD.AperFunction*%
%TA.AperFunction,Conductor*%
G36*
X94130040Y-43834185D02*
G01*
X94175795Y-43886989D01*
X94187001Y-43938500D01*
X94187001Y-43982018D01*
X94197500Y-44084796D01*
X94197501Y-44084799D01*
X94252685Y-44251331D01*
X94252687Y-44251336D01*
X94287569Y-44307888D01*
X94344788Y-44400656D01*
X94468844Y-44524712D01*
X94586411Y-44597228D01*
X94633135Y-44649175D01*
X94644358Y-44718137D01*
X94616514Y-44782220D01*
X94586411Y-44808305D01*
X94464842Y-44883289D01*
X94340789Y-45007342D01*
X94248687Y-45156663D01*
X94248685Y-45156668D01*
X94220849Y-45240670D01*
X94193544Y-45323075D01*
X94193501Y-45323204D01*
X94193500Y-45323205D01*
X94189323Y-45364102D01*
X94162927Y-45428793D01*
X94105747Y-45468945D01*
X94065965Y-45475500D01*
X90908453Y-45475500D01*
X90841414Y-45455815D01*
X90820772Y-45439181D01*
X89720901Y-44339310D01*
X89687416Y-44277987D01*
X89692400Y-44208295D01*
X89709316Y-44177317D01*
X89781352Y-44081089D01*
X89781354Y-44081086D01*
X89831596Y-43946379D01*
X89831598Y-43946372D01*
X89833870Y-43925245D01*
X89860608Y-43860694D01*
X89918000Y-43820846D01*
X89957159Y-43814500D01*
X94063001Y-43814500D01*
X94130040Y-43834185D01*
G37*
%TD.AperFunction*%
%TA.AperFunction,Conductor*%
G36*
X86930539Y-41539185D02*
G01*
X86976294Y-41591989D01*
X86987500Y-41643500D01*
X86987500Y-41792271D01*
X86986707Y-41796664D01*
X86987305Y-41799222D01*
X86980332Y-41833820D01*
X86980014Y-41834712D01*
X86943909Y-41931517D01*
X86943181Y-41938282D01*
X86938304Y-41951998D01*
X86921631Y-41974996D01*
X86907574Y-41999682D01*
X86901389Y-42002917D01*
X86897294Y-42008566D01*
X86870837Y-42018897D01*
X86845662Y-42032067D01*
X86838710Y-42031444D01*
X86832211Y-42033983D01*
X86804362Y-42028370D01*
X86776071Y-42025838D01*
X86770561Y-42021558D01*
X86763719Y-42020179D01*
X86733791Y-41998130D01*
X86691345Y-41955684D01*
X86542124Y-41863643D01*
X86542119Y-41863641D01*
X86375697Y-41808494D01*
X86375690Y-41808493D01*
X86272986Y-41798000D01*
X85848000Y-41798000D01*
X85848000Y-42736500D01*
X85828315Y-42803539D01*
X85775511Y-42849294D01*
X85724000Y-42860500D01*
X85472000Y-42860500D01*
X85404961Y-42840815D01*
X85359206Y-42788011D01*
X85348000Y-42736500D01*
X85348000Y-41825952D01*
X85367685Y-41758913D01*
X85384315Y-41738275D01*
X85566772Y-41555819D01*
X85628095Y-41522334D01*
X85654453Y-41519500D01*
X85790394Y-41519500D01*
X86863500Y-41519500D01*
X86930539Y-41539185D01*
G37*
%TD.AperFunction*%
%TA.AperFunction,Conductor*%
G36*
X94633407Y-40826868D02*
G01*
X94651909Y-40828192D01*
X94665936Y-40838562D01*
X94681700Y-40844230D01*
X94706952Y-40868888D01*
X94785346Y-40971053D01*
X94902431Y-41060896D01*
X95038779Y-41117373D01*
X95038781Y-41117374D01*
X95148358Y-41131799D01*
X95760841Y-41131799D01*
X95863916Y-41118230D01*
X95932951Y-41128996D01*
X95985206Y-41175377D01*
X96004100Y-41241169D01*
X96004100Y-41865981D01*
X95984415Y-41933020D01*
X95931611Y-41978775D01*
X95862453Y-41988719D01*
X95841098Y-41983687D01*
X95715297Y-41942001D01*
X95715295Y-41942000D01*
X95612510Y-41931500D01*
X94887498Y-41931500D01*
X94887480Y-41931501D01*
X94784703Y-41942000D01*
X94784700Y-41942001D01*
X94618168Y-41997185D01*
X94618163Y-41997187D01*
X94468842Y-42089289D01*
X94344789Y-42213342D01*
X94252687Y-42362663D01*
X94252685Y-42362668D01*
X94214301Y-42478504D01*
X94174528Y-42535949D01*
X94110012Y-42562772D01*
X94096595Y-42563500D01*
X93113452Y-42563500D01*
X93046413Y-42543815D01*
X93000658Y-42491011D01*
X92990714Y-42421853D01*
X93019739Y-42358297D01*
X93025771Y-42351819D01*
X93398815Y-41978775D01*
X94520899Y-40856690D01*
X94535908Y-40848494D01*
X94547859Y-40836257D01*
X94565936Y-40832098D01*
X94582218Y-40823208D01*
X94599278Y-40824428D01*
X94615950Y-40820593D01*
X94633407Y-40826868D01*
G37*
%TD.AperFunction*%
%TA.AperFunction,Conductor*%
G36*
X83109345Y-40191809D02*
G01*
X83148757Y-40218347D01*
X84054228Y-41123818D01*
X84087713Y-41185141D01*
X84082729Y-41254833D01*
X84054228Y-41299180D01*
X83134733Y-42218674D01*
X83073410Y-42252159D01*
X83003718Y-42247175D01*
X82947785Y-42205304D01*
X82938143Y-42192424D01*
X82868546Y-42099454D01*
X82844950Y-42081790D01*
X82753335Y-42013206D01*
X82753328Y-42013202D01*
X82621401Y-41963997D01*
X82565467Y-41922126D01*
X82541050Y-41856662D01*
X82555902Y-41788389D01*
X82577053Y-41760133D01*
X82690728Y-41646458D01*
X82815620Y-41474557D01*
X82912095Y-41285217D01*
X82977757Y-41083129D01*
X82977757Y-41083126D01*
X82988231Y-41017000D01*
X82094012Y-41017000D01*
X82126925Y-40959993D01*
X82161000Y-40832826D01*
X82161000Y-40701174D01*
X82126925Y-40574007D01*
X82094012Y-40517000D01*
X82988231Y-40517000D01*
X82977757Y-40450873D01*
X82977757Y-40450870D01*
X82943145Y-40344346D01*
X82941150Y-40274505D01*
X82977230Y-40214672D01*
X83039931Y-40183844D01*
X83109345Y-40191809D01*
G37*
%TD.AperFunction*%
%TA.AperFunction,Conductor*%
G36*
X92519787Y-26553185D02*
G01*
X92540429Y-26569819D01*
X92755228Y-26784619D01*
X92788713Y-26845942D01*
X92783729Y-26915634D01*
X92741857Y-26971567D01*
X92676393Y-26995984D01*
X92667547Y-26996300D01*
X91939498Y-26996300D01*
X91939480Y-26996301D01*
X91836703Y-27006800D01*
X91836700Y-27006801D01*
X91670168Y-27061985D01*
X91670163Y-27061987D01*
X91520842Y-27154089D01*
X91396789Y-27278142D01*
X91304687Y-27427463D01*
X91304685Y-27427468D01*
X91287721Y-27478663D01*
X91249501Y-27594003D01*
X91249501Y-27594004D01*
X91249500Y-27594004D01*
X91239000Y-27696783D01*
X91239000Y-27698500D01*
X91238895Y-27698857D01*
X91238840Y-27699939D01*
X91238679Y-27699930D01*
X91238679Y-27699932D01*
X91238655Y-27699929D01*
X91238581Y-27699925D01*
X91219315Y-27765539D01*
X91166511Y-27811294D01*
X91115000Y-27822500D01*
X90005589Y-27822500D01*
X89938550Y-27802815D01*
X89892795Y-27750011D01*
X89882231Y-27711102D01*
X89878421Y-27673811D01*
X89875499Y-27645203D01*
X89820314Y-27478666D01*
X89728212Y-27329344D01*
X89604156Y-27205288D01*
X89454834Y-27113186D01*
X89288297Y-27058001D01*
X89288295Y-27058000D01*
X89185510Y-27047500D01*
X88260498Y-27047500D01*
X88260480Y-27047501D01*
X88157703Y-27058000D01*
X88157700Y-27058001D01*
X87991168Y-27113185D01*
X87991163Y-27113187D01*
X87841842Y-27205289D01*
X87717789Y-27329342D01*
X87625687Y-27478663D01*
X87625685Y-27478668D01*
X87604300Y-27543204D01*
X87570501Y-27645203D01*
X87570501Y-27645204D01*
X87570500Y-27645204D01*
X87560000Y-27747983D01*
X87560000Y-29148001D01*
X87560001Y-29148009D01*
X87570500Y-29250796D01*
X87570501Y-29250799D01*
X87615965Y-29387999D01*
X87625686Y-29417334D01*
X87717788Y-29566656D01*
X87841844Y-29690712D01*
X87991166Y-29782814D01*
X88157703Y-29837999D01*
X88260491Y-29848500D01*
X89185508Y-29848499D01*
X89185516Y-29848498D01*
X89185519Y-29848498D01*
X89269589Y-29839910D01*
X89288297Y-29837999D01*
X89454834Y-29782814D01*
X89604156Y-29690712D01*
X89728212Y-29566656D01*
X89820314Y-29417334D01*
X89875499Y-29250797D01*
X89879771Y-29208981D01*
X89882232Y-29184897D01*
X89908629Y-29120205D01*
X89965810Y-29080054D01*
X90005590Y-29073500D01*
X91134744Y-29073500D01*
X91201783Y-29093185D01*
X91247538Y-29145989D01*
X91252448Y-29158493D01*
X91304686Y-29316134D01*
X91396788Y-29465456D01*
X91520844Y-29589512D01*
X91670166Y-29681614D01*
X91836703Y-29736799D01*
X91939491Y-29747300D01*
X92664508Y-29747299D01*
X92722391Y-29741386D01*
X92791083Y-29754156D01*
X92822673Y-29777063D01*
X95967781Y-32922171D01*
X96001266Y-32983494D01*
X96004100Y-33009852D01*
X96004100Y-37401927D01*
X95999280Y-37418340D01*
X95999484Y-37435444D01*
X95989641Y-37451168D01*
X95984415Y-37468966D01*
X95971488Y-37480166D01*
X95962412Y-37494667D01*
X95945629Y-37502574D01*
X95931611Y-37514721D01*
X95914360Y-37517306D01*
X95899206Y-37524446D01*
X95863914Y-37524866D01*
X95807000Y-37517373D01*
X95743104Y-37489106D01*
X95735505Y-37482115D01*
X93026818Y-34773428D01*
X92993333Y-34712105D01*
X92990499Y-34685747D01*
X92990499Y-34104129D01*
X92990498Y-34104123D01*
X92984091Y-34044516D01*
X92933797Y-33909671D01*
X92933793Y-33909664D01*
X92847547Y-33794455D01*
X92847544Y-33794452D01*
X92732335Y-33708206D01*
X92732328Y-33708202D01*
X92597482Y-33657908D01*
X92597483Y-33657908D01*
X92537883Y-33651501D01*
X92537881Y-33651500D01*
X92537873Y-33651500D01*
X92537865Y-33651500D01*
X90975452Y-33651500D01*
X90908413Y-33631815D01*
X90887771Y-33615181D01*
X89901150Y-32628560D01*
X89893860Y-32621270D01*
X89893858Y-32621267D01*
X89806733Y-32534142D01*
X89755509Y-32499915D01*
X89704286Y-32465688D01*
X89704283Y-32465686D01*
X89704280Y-32465685D01*
X89631163Y-32435400D01*
X89631162Y-32435399D01*
X89623792Y-32432347D01*
X89590452Y-32418537D01*
X89512913Y-32403114D01*
X89508788Y-32402293D01*
X89508779Y-32402291D01*
X89469611Y-32394500D01*
X89469607Y-32394500D01*
X89469606Y-32394500D01*
X86167606Y-32394500D01*
X86044393Y-32394500D01*
X86001087Y-32403114D01*
X86001086Y-32403113D01*
X85923555Y-32418535D01*
X85923545Y-32418538D01*
X85809716Y-32465687D01*
X85713016Y-32530301D01*
X85713013Y-32530303D01*
X85707264Y-32534143D01*
X85707262Y-32534145D01*
X84657202Y-33584206D01*
X84595879Y-33617691D01*
X84526187Y-33612707D01*
X84522068Y-33611086D01*
X84337428Y-33534605D01*
X84337421Y-33534603D01*
X84337419Y-33534602D01*
X84084116Y-33466730D01*
X84026339Y-33459123D01*
X83824127Y-33432500D01*
X83824120Y-33432500D01*
X83561880Y-33432500D01*
X83561872Y-33432500D01*
X83330772Y-33462926D01*
X83301884Y-33466730D01*
X83048581Y-33534602D01*
X83048571Y-33534605D01*
X82806309Y-33634953D01*
X82806299Y-33634958D01*
X82579196Y-33766075D01*
X82371148Y-33925718D01*
X82185718Y-34111148D01*
X82026075Y-34319196D01*
X81894958Y-34546299D01*
X81894953Y-34546309D01*
X81794605Y-34788571D01*
X81794602Y-34788581D01*
X81726730Y-35041885D01*
X81692500Y-35301872D01*
X81692500Y-35564127D01*
X81708568Y-35686166D01*
X81726730Y-35824116D01*
X81794602Y-36077418D01*
X81794605Y-36077428D01*
X81894953Y-36319690D01*
X81894958Y-36319700D01*
X82026075Y-36546803D01*
X82185718Y-36754851D01*
X82185726Y-36754860D01*
X82371140Y-36940274D01*
X82371148Y-36940281D01*
X82371149Y-36940282D01*
X82400997Y-36963185D01*
X82579196Y-37099924D01*
X82806299Y-37231041D01*
X82806309Y-37231046D01*
X83048571Y-37331394D01*
X83048581Y-37331398D01*
X83301884Y-37399270D01*
X83561880Y-37433500D01*
X83561887Y-37433500D01*
X83824113Y-37433500D01*
X83824120Y-37433500D01*
X84084116Y-37399270D01*
X84337419Y-37331398D01*
X84579697Y-37231043D01*
X84806803Y-37099924D01*
X85014851Y-36940282D01*
X85014855Y-36940277D01*
X85014860Y-36940274D01*
X85200274Y-36754860D01*
X85200277Y-36754855D01*
X85200282Y-36754851D01*
X85359924Y-36546803D01*
X85491043Y-36319697D01*
X85591398Y-36077419D01*
X85659270Y-35824116D01*
X85693500Y-35564120D01*
X85693500Y-35301880D01*
X85659270Y-35041884D01*
X85591398Y-34788581D01*
X85514911Y-34603926D01*
X85507443Y-34534461D01*
X85538718Y-34471982D01*
X85541760Y-34468828D01*
X86328772Y-33681819D01*
X86390095Y-33648334D01*
X86416453Y-33645500D01*
X86996863Y-33645500D01*
X87063902Y-33665185D01*
X87109657Y-33717989D01*
X87119601Y-33787147D01*
X87096129Y-33843811D01*
X87046649Y-33909906D01*
X87046645Y-33909913D01*
X86996403Y-34044620D01*
X86996401Y-34044627D01*
X86990000Y-34104155D01*
X86990000Y-34802000D01*
X88416000Y-34802000D01*
X88483039Y-34821685D01*
X88528794Y-34874489D01*
X88540000Y-34926000D01*
X88540000Y-35178000D01*
X88520315Y-35245039D01*
X88467511Y-35290794D01*
X88416000Y-35302000D01*
X86990000Y-35302000D01*
X86990000Y-35999844D01*
X86996401Y-36059372D01*
X86996403Y-36059380D01*
X87033168Y-36157952D01*
X87038152Y-36227644D01*
X87033168Y-36244617D01*
X86995909Y-36344514D01*
X86995908Y-36344516D01*
X86989501Y-36404116D01*
X86989500Y-36404135D01*
X86989500Y-38299870D01*
X86989501Y-38299876D01*
X86995908Y-38359483D01*
X87046202Y-38494328D01*
X87046206Y-38494335D01*
X87132452Y-38609544D01*
X87132455Y-38609547D01*
X87247664Y-38695793D01*
X87247671Y-38695797D01*
X87382517Y-38746091D01*
X87382516Y-38746091D01*
X87389444Y-38746835D01*
X87442127Y-38752500D01*
X89004545Y-38752499D01*
X89071584Y-38772184D01*
X89092226Y-38788818D01*
X89778263Y-39474855D01*
X89778267Y-39474858D01*
X89880710Y-39543309D01*
X89880711Y-39543309D01*
X89880715Y-39543312D01*
X89931868Y-39564500D01*
X89994548Y-39590463D01*
X90014597Y-39594451D01*
X90067652Y-39605004D01*
X90115392Y-39614501D01*
X90115394Y-39614501D01*
X90244721Y-39614501D01*
X90244741Y-39614500D01*
X93694547Y-39614500D01*
X93761586Y-39634185D01*
X93807341Y-39686989D01*
X93817285Y-39756147D01*
X93788260Y-39819703D01*
X93782228Y-39826181D01*
X91582681Y-42025728D01*
X91521358Y-42059213D01*
X91451666Y-42054229D01*
X91407319Y-42025728D01*
X89886822Y-40505232D01*
X89876859Y-40495269D01*
X89876858Y-40495267D01*
X89789733Y-40408142D01*
X89738509Y-40373915D01*
X89687286Y-40339688D01*
X89601732Y-40304251D01*
X89573452Y-40292537D01*
X89513029Y-40280518D01*
X89508643Y-40279645D01*
X89508641Y-40279645D01*
X89452610Y-40268500D01*
X89452607Y-40268500D01*
X89452606Y-40268500D01*
X88453607Y-40268500D01*
X88453606Y-40268500D01*
X85913606Y-40268500D01*
X85019452Y-40268500D01*
X84952413Y-40248815D01*
X84931771Y-40232181D01*
X81433819Y-36734229D01*
X81400334Y-36672906D01*
X81397500Y-36646548D01*
X81397500Y-32227920D01*
X81417185Y-32160881D01*
X81469989Y-32115126D01*
X81539147Y-32105182D01*
X81586597Y-32122382D01*
X81664369Y-32170353D01*
X81664380Y-32170358D01*
X81830802Y-32225505D01*
X81830809Y-32225506D01*
X81933519Y-32235999D01*
X82045999Y-32235999D01*
X82546000Y-32235999D01*
X82658472Y-32235999D01*
X82658486Y-32235998D01*
X82761197Y-32225505D01*
X82927619Y-32170358D01*
X82927624Y-32170356D01*
X83076845Y-32078315D01*
X83200815Y-31954345D01*
X83292856Y-31805124D01*
X83292858Y-31805119D01*
X83348005Y-31638697D01*
X83348006Y-31638690D01*
X83358499Y-31535986D01*
X83358500Y-31535973D01*
X83358500Y-31111000D01*
X82546000Y-31111000D01*
X82546000Y-32235999D01*
X82045999Y-32235999D01*
X82046000Y-32235998D01*
X82046000Y-30611000D01*
X82546000Y-30611000D01*
X83358499Y-30611000D01*
X83358499Y-30186028D01*
X83358498Y-30186013D01*
X83348005Y-30083302D01*
X83292858Y-29916880D01*
X83292856Y-29916875D01*
X83200815Y-29767654D01*
X83076845Y-29643684D01*
X82927624Y-29551643D01*
X82927619Y-29551641D01*
X82761197Y-29496494D01*
X82761190Y-29496493D01*
X82658486Y-29486000D01*
X82546000Y-29486000D01*
X82546000Y-30611000D01*
X82046000Y-30611000D01*
X82046000Y-29486000D01*
X81933527Y-29486000D01*
X81933512Y-29486001D01*
X81830802Y-29496494D01*
X81664380Y-29551641D01*
X81664370Y-29551646D01*
X81655416Y-29557169D01*
X81588022Y-29575607D01*
X81521360Y-29554682D01*
X81476592Y-29501038D01*
X81467934Y-29431707D01*
X81498133Y-29368701D01*
X81502623Y-29363966D01*
X81718603Y-29147986D01*
X84435501Y-29147986D01*
X84445994Y-29250697D01*
X84501141Y-29417119D01*
X84501143Y-29417124D01*
X84593184Y-29566345D01*
X84717154Y-29690315D01*
X84866375Y-29782356D01*
X84866380Y-29782358D01*
X85032802Y-29837505D01*
X85032809Y-29837506D01*
X85135519Y-29847999D01*
X85347999Y-29847999D01*
X85848000Y-29847999D01*
X86060472Y-29847999D01*
X86060486Y-29847998D01*
X86163197Y-29837505D01*
X86329619Y-29782358D01*
X86329624Y-29782356D01*
X86478845Y-29690315D01*
X86602815Y-29566345D01*
X86694856Y-29417124D01*
X86694858Y-29417119D01*
X86750005Y-29250697D01*
X86750006Y-29250690D01*
X86760499Y-29147986D01*
X86760500Y-29147973D01*
X86760500Y-28698000D01*
X85848000Y-28698000D01*
X85848000Y-29847999D01*
X85347999Y-29847999D01*
X85348000Y-29847998D01*
X85348000Y-28698000D01*
X84435501Y-28698000D01*
X84435501Y-29147986D01*
X81718603Y-29147986D01*
X83118577Y-27748013D01*
X84435500Y-27748013D01*
X84435500Y-28198000D01*
X85348000Y-28198000D01*
X85848000Y-28198000D01*
X86760499Y-28198000D01*
X86760499Y-27748028D01*
X86760498Y-27748013D01*
X86750005Y-27645302D01*
X86694858Y-27478880D01*
X86694856Y-27478875D01*
X86602815Y-27329654D01*
X86478845Y-27205684D01*
X86329624Y-27113643D01*
X86329619Y-27113641D01*
X86163197Y-27058494D01*
X86163190Y-27058493D01*
X86060486Y-27048000D01*
X85848000Y-27048000D01*
X85848000Y-28198000D01*
X85348000Y-28198000D01*
X85348000Y-27048000D01*
X85135529Y-27048000D01*
X85135512Y-27048001D01*
X85032802Y-27058494D01*
X84866380Y-27113641D01*
X84866375Y-27113643D01*
X84717154Y-27205684D01*
X84593184Y-27329654D01*
X84501143Y-27478875D01*
X84501141Y-27478880D01*
X84445994Y-27645302D01*
X84445993Y-27645309D01*
X84435500Y-27748013D01*
X83118577Y-27748013D01*
X84296771Y-26569819D01*
X84358094Y-26536334D01*
X84384452Y-26533500D01*
X92452748Y-26533500D01*
X92519787Y-26553185D01*
G37*
%TD.AperFunction*%
%TA.AperFunction,Conductor*%
G36*
X93195203Y-36711439D02*
G01*
X93201681Y-36717471D01*
X94359695Y-37875485D01*
X94393180Y-37936808D01*
X94388196Y-38006500D01*
X94352638Y-38054594D01*
X94353582Y-38055538D01*
X94081939Y-38327181D01*
X94020616Y-38360666D01*
X93994258Y-38363500D01*
X93114000Y-38363500D01*
X93046961Y-38343815D01*
X93001206Y-38291011D01*
X92990000Y-38239500D01*
X92990000Y-37602000D01*
X91564000Y-37602000D01*
X91496961Y-37582315D01*
X91451206Y-37529511D01*
X91440000Y-37478000D01*
X91440000Y-37226000D01*
X91459685Y-37158961D01*
X91512489Y-37113206D01*
X91564000Y-37102000D01*
X92990000Y-37102000D01*
X92990000Y-36805152D01*
X93009685Y-36738113D01*
X93062489Y-36692358D01*
X93131647Y-36682414D01*
X93195203Y-36711439D01*
G37*
%TD.AperFunction*%
%TD*%
M02*
