%TF.GenerationSoftware,KiCad,Pcbnew,9.0.0*%
%TF.CreationDate,2025-03-07T11:03:18+01:00*%
%TF.ProjectId,PCB_rigide,5043425f-7269-4676-9964-652e6b696361,rev?*%
%TF.SameCoordinates,Original*%
%TF.FileFunction,Paste,Top*%
%TF.FilePolarity,Positive*%
%FSLAX46Y46*%
G04 Gerber Fmt 4.6, Leading zero omitted, Abs format (unit mm)*
G04 Created by KiCad (PCBNEW 9.0.0) date 2025-03-07 11:03:18*
%MOMM*%
%LPD*%
G01*
G04 APERTURE LIST*
G04 Aperture macros list*
%AMRoundRect*
0 Rectangle with rounded corners*
0 $1 Rounding radius*
0 $2 $3 $4 $5 $6 $7 $8 $9 X,Y pos of 4 corners*
0 Add a 4 corners polygon primitive as box body*
4,1,4,$2,$3,$4,$5,$6,$7,$8,$9,$2,$3,0*
0 Add four circle primitives for the rounded corners*
1,1,$1+$1,$2,$3*
1,1,$1+$1,$4,$5*
1,1,$1+$1,$6,$7*
1,1,$1+$1,$8,$9*
0 Add four rect primitives between the rounded corners*
20,1,$1+$1,$2,$3,$4,$5,0*
20,1,$1+$1,$4,$5,$6,$7,0*
20,1,$1+$1,$6,$7,$8,$9,0*
20,1,$1+$1,$8,$9,$2,$3,0*%
G04 Aperture macros list end*
%ADD10C,0.010000*%
%ADD11RoundRect,0.250000X-0.312500X-0.625000X0.312500X-0.625000X0.312500X0.625000X-0.312500X0.625000X0*%
%ADD12RoundRect,0.250000X-0.625000X0.312500X-0.625000X-0.312500X0.625000X-0.312500X0.625000X0.312500X0*%
%ADD13RoundRect,0.250000X0.625000X-0.312500X0.625000X0.312500X-0.625000X0.312500X-0.625000X-0.312500X0*%
%ADD14RoundRect,0.250000X0.650000X-0.412500X0.650000X0.412500X-0.650000X0.412500X-0.650000X-0.412500X0*%
%ADD15RoundRect,0.250000X0.312500X0.625000X-0.312500X0.625000X-0.312500X-0.625000X0.312500X-0.625000X0*%
%ADD16R,2.100000X1.800000*%
%ADD17RoundRect,0.060500X-0.269500X0.049500X-0.269500X-0.049500X0.269500X-0.049500X0.269500X0.049500X0*%
%ADD18RoundRect,0.060500X-0.049500X0.269500X-0.049500X-0.269500X0.049500X-0.269500X0.049500X0.269500X0*%
%ADD19RoundRect,0.250000X0.412500X0.650000X-0.412500X0.650000X-0.412500X-0.650000X0.412500X-0.650000X0*%
G04 APERTURE END LIST*
D10*
%TO.C,U2*%
X87763000Y-42314000D02*
X87463000Y-42314000D01*
X87463000Y-42064000D01*
X87763000Y-42064000D01*
X87763000Y-42314000D01*
G36*
X87763000Y-42314000D02*
G01*
X87463000Y-42314000D01*
X87463000Y-42064000D01*
X87763000Y-42064000D01*
X87763000Y-42314000D01*
G37*
X87763000Y-42814000D02*
X87463000Y-42814000D01*
X87463000Y-42564000D01*
X87763000Y-42564000D01*
X87763000Y-42814000D01*
G36*
X87763000Y-42814000D02*
G01*
X87463000Y-42814000D01*
X87463000Y-42564000D01*
X87763000Y-42564000D01*
X87763000Y-42814000D01*
G37*
X87763000Y-43314000D02*
X87463000Y-43314000D01*
X87463000Y-43064000D01*
X87763000Y-43064000D01*
X87763000Y-43314000D01*
G36*
X87763000Y-43314000D02*
G01*
X87463000Y-43314000D01*
X87463000Y-43064000D01*
X87763000Y-43064000D01*
X87763000Y-43314000D01*
G37*
X87763000Y-43814000D02*
X87463000Y-43814000D01*
X87463000Y-43564000D01*
X87763000Y-43564000D01*
X87763000Y-43814000D01*
G36*
X87763000Y-43814000D02*
G01*
X87463000Y-43814000D01*
X87463000Y-43564000D01*
X87763000Y-43564000D01*
X87763000Y-43814000D01*
G37*
X88263000Y-42314000D02*
X88013000Y-42314000D01*
X88013000Y-42014000D01*
X88263000Y-42014000D01*
X88263000Y-42314000D01*
G36*
X88263000Y-42314000D02*
G01*
X88013000Y-42314000D01*
X88013000Y-42014000D01*
X88263000Y-42014000D01*
X88263000Y-42314000D01*
G37*
X88263000Y-43864000D02*
X88013000Y-43864000D01*
X88013000Y-43564000D01*
X88263000Y-43564000D01*
X88263000Y-43864000D01*
G36*
X88263000Y-43864000D02*
G01*
X88013000Y-43864000D01*
X88013000Y-43564000D01*
X88263000Y-43564000D01*
X88263000Y-43864000D01*
G37*
X88763000Y-42314000D02*
X88513000Y-42314000D01*
X88513000Y-42014000D01*
X88763000Y-42014000D01*
X88763000Y-42314000D01*
G36*
X88763000Y-42314000D02*
G01*
X88513000Y-42314000D01*
X88513000Y-42014000D01*
X88763000Y-42014000D01*
X88763000Y-42314000D01*
G37*
X88763000Y-43864000D02*
X88513000Y-43864000D01*
X88513000Y-43564000D01*
X88763000Y-43564000D01*
X88763000Y-43864000D01*
G36*
X88763000Y-43864000D02*
G01*
X88513000Y-43864000D01*
X88513000Y-43564000D01*
X88763000Y-43564000D01*
X88763000Y-43864000D01*
G37*
X89313000Y-42314000D02*
X89013000Y-42314000D01*
X89013000Y-42064000D01*
X89313000Y-42064000D01*
X89313000Y-42314000D01*
G36*
X89313000Y-42314000D02*
G01*
X89013000Y-42314000D01*
X89013000Y-42064000D01*
X89313000Y-42064000D01*
X89313000Y-42314000D01*
G37*
X89313000Y-42814000D02*
X89013000Y-42814000D01*
X89013000Y-42564000D01*
X89313000Y-42564000D01*
X89313000Y-42814000D01*
G36*
X89313000Y-42814000D02*
G01*
X89013000Y-42814000D01*
X89013000Y-42564000D01*
X89313000Y-42564000D01*
X89313000Y-42814000D01*
G37*
X89313000Y-43314000D02*
X89013000Y-43314000D01*
X89013000Y-43064000D01*
X89313000Y-43064000D01*
X89313000Y-43314000D01*
G36*
X89313000Y-43314000D02*
G01*
X89013000Y-43314000D01*
X89013000Y-43064000D01*
X89313000Y-43064000D01*
X89313000Y-43314000D01*
G37*
X89313000Y-43814000D02*
X89013000Y-43814000D01*
X89013000Y-43564000D01*
X89313000Y-43564000D01*
X89313000Y-43814000D01*
G36*
X89313000Y-43814000D02*
G01*
X89013000Y-43814000D01*
X89013000Y-43564000D01*
X89313000Y-43564000D01*
X89313000Y-43814000D01*
G37*
%TO.C,U1*%
X97409600Y-39922800D02*
X96349600Y-39922800D01*
X96349600Y-38720800D01*
X97409600Y-38720800D01*
X97409600Y-39922800D01*
G36*
X97409600Y-39922800D02*
G01*
X96349600Y-39922800D01*
X96349600Y-38720800D01*
X97409600Y-38720800D01*
X97409600Y-39922800D01*
G37*
%TD*%
D11*
%TO.C,R12*%
X102358000Y-37846000D03*
X105283000Y-37846000D03*
%TD*%
D12*
%TO.C,R10*%
X104013000Y-25400000D03*
X104013000Y-28325000D03*
%TD*%
D13*
%TO.C,R4*%
X102616000Y-40386000D03*
X102616000Y-43311000D03*
%TD*%
D12*
%TO.C,R1*%
X100203000Y-39243000D03*
X100203000Y-36318000D03*
%TD*%
D11*
%TO.C,R9*%
X79371000Y-30861000D03*
X82296000Y-30861000D03*
%TD*%
D14*
%TO.C,C1*%
X85598000Y-48006000D03*
X85598000Y-51131000D03*
%TD*%
D13*
%TO.C,R8*%
X89281000Y-52836000D03*
X89281000Y-49911000D03*
%TD*%
%TO.C,R6*%
X85598000Y-45785500D03*
X85598000Y-42860500D03*
%TD*%
D11*
%TO.C,R7*%
X95250000Y-43307000D03*
X98175000Y-43307000D03*
%TD*%
D13*
%TO.C,R2*%
X103936800Y-33582800D03*
X103936800Y-30657800D03*
%TD*%
D15*
%TO.C,R5*%
X95227000Y-28371800D03*
X92302000Y-28371800D03*
%TD*%
D16*
%TO.C,Y1*%
X88540000Y-37352000D03*
X91440000Y-37352000D03*
X91440000Y-35052000D03*
X88540000Y-35052000D03*
%TD*%
D14*
%TO.C,C2*%
X81788000Y-51155600D03*
X81788000Y-48030600D03*
%TD*%
D11*
%TO.C,R3*%
X95246000Y-46101000D03*
X98171000Y-46101000D03*
%TD*%
D17*
%TO.C,U1*%
X95454600Y-38121800D03*
X95454600Y-38521800D03*
X95454600Y-38921800D03*
X95454600Y-39321800D03*
X95454600Y-39721800D03*
X95454600Y-40121800D03*
X95454600Y-40521800D03*
D18*
X96629600Y-40741800D03*
X97129600Y-40746800D03*
D17*
X98304600Y-40521800D03*
X98304600Y-40121800D03*
X98304600Y-39721800D03*
X98304600Y-39321800D03*
X98304600Y-38921800D03*
X98304600Y-38521800D03*
X98304600Y-38121800D03*
D18*
X97129600Y-37896800D03*
X96629600Y-37896800D03*
%TD*%
D19*
%TO.C,C3*%
X88723000Y-28448000D03*
X85598000Y-28448000D03*
%TD*%
D11*
%TO.C,R11*%
X98929000Y-28321000D03*
X101854000Y-28321000D03*
%TD*%
M02*
